<svg xmlns="http://www.w3.org/2000/svg" xmlns:xlink="http://www.w3.org/1999/xlink" contentStyleType="text/css" height="305px" preserveAspectRatio="none" style="width:2028px;height:305px;background:#FFFFFF;" version="1.1" viewBox="0 0 2028 305" width="2028px" zoomAndPan="magnify"><defs/><g><!--entity Hyperspectral_Camera--><g id="elem_Hyperspectral_Camera"><rect fill="#F1F1F1" height="46.2969" rx="2.5" ry="2.5" style="stroke:#181818;stroke-width:0.5;" width="200.2139" x="7" y="130.3"/><rect fill="#F1F1F1" height="10" style="stroke:#181818;stroke-width:0.5;" width="15" x="187.2139" y="135.3"/><rect fill="#F1F1F1" height="2" style="stroke:#181818;stroke-width:0.5;" width="4" x="185.2139" y="137.3"/><rect fill="#F1F1F1" height="2" style="stroke:#181818;stroke-width:0.5;" width="4" x="185.2139" y="141.3"/><text fill="#000000" font-family="sans-serif" font-size="14" lengthAdjust="spacing" textLength="160.2139" x="22" y="163.2951">Hyperspectral_Camera</text></g><!--entity PLC--><g id="elem_PLC"><rect fill="#F1F1F1" height="46.2969" rx="2.5" ry="2.5" style="stroke:#181818;stroke-width:0.5;" width="66.0176" x="1081.1" y="130.3"/><rect fill="#F1F1F1" height="10" style="stroke:#181818;stroke-width:0.5;" width="15" x="1127.1176" y="135.3"/><rect fill="#F1F1F1" height="2" style="stroke:#181818;stroke-width:0.5;" width="4" x="1125.1176" y="137.3"/><rect fill="#F1F1F1" height="2" style="stroke:#181818;stroke-width:0.5;" width="4" x="1125.1176" y="141.3"/><text fill="#000000" font-family="sans-serif" font-size="14" lengthAdjust="spacing" textLength="26.0176" x="1096.1" y="163.2951">PLC</text></g><!--entity Robot--><g id="elem_Robot"><rect fill="#F1F1F1" height="46.2969" rx="2.5" ry="2.5" style="stroke:#181818;stroke-width:0.5;" width="81.2344" x="1484.49" y="130.3"/><rect fill="#F1F1F1" height="10" style="stroke:#181818;stroke-width:0.5;" width="15" x="1545.7244" y="135.3"/><rect fill="#F1F1F1" height="2" style="stroke:#181818;stroke-width:0.5;" width="4" x="1543.7244" y="137.3"/><rect fill="#F1F1F1" height="2" style="stroke:#181818;stroke-width:0.5;" width="4" x="1543.7244" y="141.3"/><text fill="#000000" font-family="sans-serif" font-size="14" lengthAdjust="spacing" textLength="41.2344" x="1499.49" y="163.2951">Robot</text></g><!--entity Conveyor--><g id="elem_Conveyor"><rect fill="#F1F1F1" height="46.2969" rx="2.5" ry="2.5" style="stroke:#181818;stroke-width:0.5;" width="106.7188" x="1798.75" y="130.3"/><rect fill="#F1F1F1" height="10" style="stroke:#181818;stroke-width:0.5;" width="15" x="1885.4688" y="135.3"/><rect fill="#F1F1F1" height="2" style="stroke:#181818;stroke-width:0.5;" width="4" x="1883.4688" y="137.3"/><rect fill="#F1F1F1" height="2" style="stroke:#181818;stroke-width:0.5;" width="4" x="1883.4688" y="141.3"/><text fill="#000000" font-family="sans-serif" font-size="14" lengthAdjust="spacing" textLength="66.7188" x="1813.75" y="163.2951">Conveyor</text></g><!--entity Lights--><g id="elem_Lights"><rect fill="#F1F1F1" height="46.2969" rx="2.5" ry="2.5" style="stroke:#181818;stroke-width:0.5;" width="82.2324" x="1939.99" y="130.3"/><rect fill="#F1F1F1" height="10" style="stroke:#181818;stroke-width:0.5;" width="15" x="2002.2224" y="135.3"/><rect fill="#F1F1F1" height="2" style="stroke:#181818;stroke-width:0.5;" width="4" x="2000.2224" y="137.3"/><rect fill="#F1F1F1" height="2" style="stroke:#181818;stroke-width:0.5;" width="4" x="2000.2224" y="141.3"/><text fill="#000000" font-family="sans-serif" font-size="14" lengthAdjust="spacing" textLength="42.2324" x="1954.99" y="163.2951">Lights</text></g><!--entity Emergency_Stop--><g id="elem_Emergency_Stop"><rect fill="#F1F1F1" height="46.2969" rx="2.5" ry="2.5" style="stroke:#181818;stroke-width:0.5;" width="158.0361" x="1220.09" y="7"/><rect fill="#F1F1F1" height="10" style="stroke:#181818;stroke-width:0.5;" width="15" x="1358.1261" y="12"/><rect fill="#F1F1F1" height="2" style="stroke:#181818;stroke-width:0.5;" width="4" x="1356.1261" y="14"/><rect fill="#F1F1F1" height="2" style="stroke:#181818;stroke-width:0.5;" width="4" x="1356.1261" y="18"/><text fill="#000000" font-family="sans-serif" font-size="14" lengthAdjust="spacing" textLength="118.0361" x="1235.09" y="39.9951">Emergency_Stop</text></g><!--entity Proximity_Sensor--><g id="elem_Proximity_Sensor"><rect fill="#F1F1F1" height="46.2969" rx="2.5" ry="2.5" style="stroke:#181818;stroke-width:0.5;" width="161.2285" x="295.49" y="130.3"/><rect fill="#F1F1F1" height="10" style="stroke:#181818;stroke-width:0.5;" width="15" x="436.7185" y="135.3"/><rect fill="#F1F1F1" height="2" style="stroke:#181818;stroke-width:0.5;" width="4" x="434.7185" y="137.3"/><rect fill="#F1F1F1" height="2" style="stroke:#181818;stroke-width:0.5;" width="4" x="434.7185" y="141.3"/><text fill="#000000" font-family="sans-serif" font-size="14" lengthAdjust="spacing" textLength="121.2285" x="310.49" y="163.2951">Proximity_Sensor</text></g><!--entity Start_Button--><g id="elem_Start_Button"><rect fill="#F1F1F1" height="46.2969" rx="2.5" ry="2.5" style="stroke:#181818;stroke-width:0.5;" width="128.0947" x="1057.06" y="7"/><rect fill="#F1F1F1" height="10" style="stroke:#181818;stroke-width:0.5;" width="15" x="1165.1547" y="12"/><rect fill="#F1F1F1" height="2" style="stroke:#181818;stroke-width:0.5;" width="4" x="1163.1547" y="14"/><rect fill="#F1F1F1" height="2" style="stroke:#181818;stroke-width:0.5;" width="4" x="1163.1547" y="18"/><text fill="#000000" font-family="sans-serif" font-size="14" lengthAdjust="spacing" textLength="88.0947" x="1072.06" y="39.9951">Start_Button</text></g><!--entity Stop_Button--><g id="elem_Stop_Button"><rect fill="#F1F1F1" height="46.2969" rx="2.5" ry="2.5" style="stroke:#181818;stroke-width:0.5;" width="125.7227" x="1051.25" y="253.59"/><rect fill="#F1F1F1" height="10" style="stroke:#181818;stroke-width:0.5;" width="15" x="1156.9727" y="258.59"/><rect fill="#F1F1F1" height="2" style="stroke:#181818;stroke-width:0.5;" width="4" x="1154.9727" y="260.59"/><rect fill="#F1F1F1" height="2" style="stroke:#181818;stroke-width:0.5;" width="4" x="1154.9727" y="264.59"/><text fill="#000000" font-family="sans-serif" font-size="14" lengthAdjust="spacing" textLength="85.7227" x="1066.25" y="286.5851">Stop_Button</text></g><!--entity Emergency_stop--><g id="elem_Emergency_stop"><ellipse cx="251.11" cy="153.44" fill="#F1F1F1" rx="8" ry="8" style="stroke:#181818;stroke-width:0.5;"/><text fill="#000000" font-family="sans-serif" font-size="14" lengthAdjust="spacing" textLength="116.4434" x="192.8883" y="183.4351">Emergency_stop</text></g><!--entity Safety_Barrier--><g id="elem_Safety_Barrier"><ellipse cx="835.11" cy="153.44" fill="#F1F1F1" rx="8" ry="8" style="stroke:#181818;stroke-width:0.5;"/><text fill="#000000" font-family="sans-serif" font-size="14" lengthAdjust="spacing" textLength="99.7363" x="785.2418" y="183.4351">Safety_Barrier</text></g><!--link Hyperspectral_Camera to PLC--><g id="link_Hyperspectral_Camera_PLC"><path d="M207.53,132.85 C354.24,105.64 635.63,64.39 873.61,93.57 C948.99,102.81 1029.0316,125.9534 1075.0216,140.5634 " fill="none" id="Hyperspectral_Camera-to-PLC" style="stroke:#181818;stroke-width:1.0;"/><polygon fill="#181818" points="1080.74,142.38,1073.3735,135.8428,1075.9747,140.8662,1070.9514,143.4674,1080.74,142.38" style="stroke:#181818;stroke-width:1.0;"/><text fill="#000000" font-family="sans-serif" font-size="13" lengthAdjust="spacing" textLength="207.5938" x="665.61" y="96.3669">Feed material type and location</text></g><!--link Emergency_stop to PLC--><g id="link_Emergency_stop_PLC"><path d="M259.11,144.1 C264.03,139.05 270.78,133.26 278.11,130.3 C402.12,80.06 745.36,97.65 879.11,93.57 C901.54,92.89 1061.78,82.16 1081.11,93.57 C1094.39,101.42 1100.5753,111.125 1105.5353,124.295 " fill="none" id="Emergency_stop-to-PLC" style="stroke:#181818;stroke-width:1.0;"/><polygon fill="#181818" points="1107.65,129.91,1108.2213,120.0777,1105.8878,125.2308,1100.7347,122.8973,1107.65,129.91" style="stroke:#181818;stroke-width:1.0;"/><text fill="#000000" font-family="sans-serif" font-size="13" lengthAdjust="spacing" textLength="200.3892" x="880.11" y="96.3669">Stop entire system if activated</text></g><!--link Proximity_Sensor to PLC--><g id="link_Proximity_Sensor_PLC"><path d="M399.28,129.99 C414.33,116.49 435.18,100.79 457.11,93.57 C499.74,79.52 614.31,90.64 659.11,93.57 C817.92,103.98 999.9976,133.5784 1074.9476,146.5284 " fill="none" id="Proximity_Sensor-to-PLC" style="stroke:#181818;stroke-width:1.0;"/><polygon fill="#181818" points="1080.86,147.55,1072.6724,142.0761,1075.933,146.6987,1071.3104,149.9593,1080.86,147.55" style="stroke:#181818;stroke-width:1.0;"/><text fill="#000000" font-family="sans-serif" font-size="13" lengthAdjust="spacing" textLength="200.3892" x="458.11" y="96.3669">Stop entire system if activated</text></g><!--link Safety_Barrier to PLC--><g id="link_Safety_Barrier_PLC"><path d="M844.39,153.44 C881.08,153.44 1011.05,153.44 1074.76,153.44 " fill="none" id="Safety_Barrier-to-PLC" style="stroke:#181818;stroke-width:1.0;"/><polygon fill="#181818" points="1080.76,153.44,1071.76,149.44,1075.76,153.44,1071.76,157.44,1080.76,153.44" style="stroke:#181818;stroke-width:1.0;"/><text fill="#000000" font-family="sans-serif" font-size="13" lengthAdjust="spacing" textLength="200.3892" x="862.6" y="146.5069">Stop entire system if activated</text></g><!--link Start_Button to PLC--><g id="link_Start_Button_PLC"><path d="M1119.81,53.68 C1118.55,75.47 1117.0072,102.3001 1115.7472,124.0401 " fill="none" id="Start_Button-to-PLC" style="stroke:#181818;stroke-width:1.0;"/><polygon fill="#181818" points="1115.4,130.03,1119.914,121.2765,1115.6893,125.0384,1111.9274,120.8136,1115.4,130.03" style="stroke:#181818;stroke-width:1.0;"/><text fill="#000000" font-family="sans-serif" font-size="13" lengthAdjust="spacing" textLength="132.6597" x="1118.11" y="96.3669">Tells system to start</text></g><!--reverse link PLC to Stop_Button--><g id="link_PLC_Stop_Button"><path d="M1114.11,182.98 C1114.11,204.76 1114.11,231.59 1114.11,253.33 " fill="none" id="PLC-backto-Stop_Button" style="stroke:#181818;stroke-width:1.0;"/><polygon fill="#181818" points="1114.11,176.98,1110.11,185.98,1114.11,181.98,1118.11,185.98,1114.11,176.98" style="stroke:#181818;stroke-width:1.0;"/><text fill="#000000" font-family="sans-serif" font-size="13" lengthAdjust="spacing" textLength="130.457" x="1115.11" y="219.6569">Tells system to stop</text></g><!--link PLC to Lights--><g id="link_PLC_Lights"><path d="M1147.45,135.38 C1176.31,120.84 1219.65,101.54 1260.11,93.57 C1317.67,82.23 1465.5,90.88 1524.11,93.57 C1702,101.74 1749.95,88.7 1923.11,130.3 C1928.59,131.61 1928.5762,131.3697 1934.0962,133.2997 " fill="none" id="PLC-to-Lights" style="stroke:#181818;stroke-width:1.0;"/><polygon fill="#181818" points="1939.76,135.28,1932.5845,128.5337,1935.0402,133.6298,1929.9441,136.0854,1939.76,135.28" style="stroke:#181818;stroke-width:1.0;"/><text fill="#000000" font-family="sans-serif" font-size="13" lengthAdjust="spacing" textLength="262.8882" x="1261.11" y="96.3669">Optimises light condition for the camera</text></g><!--link PLC to Conveyor--><g id="link_PLC_Conveyor"><path d="M1147.59,146.96 C1217.98,133.68 1386.58,103.82 1529.61,93.57 C1559.42,91.43 1771.33,81.36 1798.61,93.57 C1815.28,101.03 1825.4564,111.6096 1834.7864,124.9796 " fill="none" id="PLC-to-Conveyor" style="stroke:#181818;stroke-width:1.0;"/><polygon fill="#181818" points="1838.22,129.9,1836.3499,120.2303,1835.3587,125.7997,1829.7893,124.8085,1838.22,129.9" style="stroke:#181818;stroke-width:1.0;"/><text fill="#000000" font-family="sans-serif" font-size="13" lengthAdjust="spacing" textLength="267.7124" x="1530.61" y="96.3669">Starts and stops converyor when needed</text></g><!--link PLC to Robot--><g id="link_PLC_Robot"><path d="M1147.39,153.44 C1222.02,153.44 1396.53,153.44 1478,153.44 " fill="none" id="PLC-to-Robot" style="stroke:#181818;stroke-width:1.0;"/><polygon fill="#181818" points="1484,153.44,1475,149.44,1479,153.44,1475,157.44,1484,153.44" style="stroke:#181818;stroke-width:1.0;"/><text fill="#000000" font-family="sans-serif" font-size="13" lengthAdjust="spacing" textLength="301.4248" x="1165.3" y="146.5069">Tells robot where to pick up and let go of item</text></g><!--SRC=[bLAxRiCm3Dpz5Vm1_q263Z5QT0ZGeibkg38T2vL5WQAJ-kzBnN2Z1EsGaOyx7e-qD4OA60HUvuYS8bfXuzl6ZCYcih_bzrrJH1_qILB43OKJpiH5QkUEWwGYyQoCHmnsRlT2iQHc-dQZ4orWI3SaUp4ixNOIeN2JfhXcg-elvL1pdby_PU4RU47iO3I2x8m7KG2Oq84dQyGfoLLRKkexS9u6EjOnGfgJu0Yk1sF5dPIng-xrFmZVcnuLkpNC3Xy65mP1tT4vhCW3UfzMZ12at5aLpa4znV-RzK9QkQfPphc1joYwQy84FcV0KkXSzX1wtLm61BkypWrw_O_DSj5qSJyFIPdWXAmrE0yO8EYbigSb-l9jgqZEGUvLHrHfTFOBfhYS4mME1DI3qpr-0000]--></g></svg>