<svg xmlns="http://www.w3.org/2000/svg" xmlns:xlink="http://www.w3.org/1999/xlink" contentStyleType="text/css" height="456px" preserveAspectRatio="none" style="width:805px;height:456px;background:#FFFFFF;" version="1.1" viewBox="0 0 805 456" width="805px" zoomAndPan="magnify"><defs/><g><text fill="#000000" font-family="sans-serif" font-size="14" font-weight="bold" lengthAdjust="spacing" textLength="222.5371" x="290.6147" y="27.9951">Project Timeline (20 Weeks)</text><line style="stroke:#181818;stroke-width:0.5;stroke-dasharray:5.0,5.0;" x1="67" x2="67" y1="73.5938" y2="420.7891"/><line style="stroke:#181818;stroke-width:0.5;stroke-dasharray:5.0,5.0;" x1="217.4053" x2="217.4053" y1="73.5938" y2="420.7891"/><line style="stroke:#181818;stroke-width:0.5;stroke-dasharray:5.0,5.0;" x1="389.9043" x2="389.9043" y1="73.5938" y2="420.7891"/><line style="stroke:#181818;stroke-width:0.5;stroke-dasharray:5.0,5.0;" x1="541.3223" x2="541.3223" y1="73.5938" y2="420.7891"/><line style="stroke:#181818;stroke-width:0.5;stroke-dasharray:5.0,5.0;" x1="719.1064" x2="719.1064" y1="73.5938" y2="420.7891"/><rect fill="#E2E2F0" height="30.2969" rx="2.5" ry="2.5" style="stroke:#181818;stroke-width:0.5;" width="125.4053" x="5" y="42.2969"/><text fill="#000000" font-family="sans-serif" font-size="14" lengthAdjust="spacing" textLength="111.4053" x="12" y="62.292">Research Phase</text><rect fill="#E2E2F0" height="30.2969" rx="2.5" ry="2.5" style="stroke:#181818;stroke-width:0.5;" width="125.4053" x="5" y="419.7891"/><text fill="#000000" font-family="sans-serif" font-size="14" lengthAdjust="spacing" textLength="111.4053" x="12" y="439.7842">Research Phase</text><rect fill="#E2E2F0" height="30.2969" rx="2.5" ry="2.5" style="stroke:#181818;stroke-width:0.5;" width="154.499" x="140.4053" y="42.2969"/><text fill="#000000" font-family="sans-serif" font-size="14" lengthAdjust="spacing" textLength="140.499" x="147.4053" y="62.292">Development Phase</text><rect fill="#E2E2F0" height="30.2969" rx="2.5" ry="2.5" style="stroke:#181818;stroke-width:0.5;" width="154.499" x="140.4053" y="419.7891"/><text fill="#000000" font-family="sans-serif" font-size="14" lengthAdjust="spacing" textLength="140.499" x="147.4053" y="439.7842">Development Phase</text><rect fill="#E2E2F0" height="30.2969" rx="2.5" ry="2.5" style="stroke:#181818;stroke-width:0.5;" width="171.418" x="304.9043" y="42.2969"/><text fill="#000000" font-family="sans-serif" font-size="14" lengthAdjust="spacing" textLength="157.418" x="311.9043" y="62.292">Implementation Phase</text><rect fill="#E2E2F0" height="30.2969" rx="2.5" ry="2.5" style="stroke:#181818;stroke-width:0.5;" width="171.418" x="304.9043" y="419.7891"/><text fill="#000000" font-family="sans-serif" font-size="14" lengthAdjust="spacing" textLength="157.418" x="311.9043" y="439.7842">Implementation Phase</text><rect fill="#E2E2F0" height="30.2969" rx="2.5" ry="2.5" style="stroke:#181818;stroke-width:0.5;" width="111.8496" x="486.3223" y="42.2969"/><text fill="#000000" font-family="sans-serif" font-size="14" lengthAdjust="spacing" textLength="97.8496" x="493.3223" y="62.292">Testing Phase</text><rect fill="#E2E2F0" height="30.2969" rx="2.5" ry="2.5" style="stroke:#181818;stroke-width:0.5;" width="111.8496" x="486.3223" y="419.7891"/><text fill="#000000" font-family="sans-serif" font-size="14" lengthAdjust="spacing" textLength="97.8496" x="493.3223" y="439.7842">Testing Phase</text><rect fill="#E2E2F0" height="30.2969" rx="2.5" ry="2.5" style="stroke:#181818;stroke-width:0.5;" width="159.6602" x="640.1064" y="42.2969"/><text fill="#000000" font-family="sans-serif" font-size="14" lengthAdjust="spacing" textLength="145.6602" x="647.1064" y="62.292">Final Documentation</text><rect fill="#E2E2F0" height="30.2969" rx="2.5" ry="2.5" style="stroke:#181818;stroke-width:0.5;" width="159.6602" x="640.1064" y="419.7891"/><text fill="#000000" font-family="sans-serif" font-size="14" lengthAdjust="spacing" textLength="145.6602" x="647.1064" y="439.7842">Final Documentation</text><line style="stroke:#181818;stroke-width:1.0;" x1="67.7026" x2="109.7026" y1="104.7266" y2="104.7266"/><line style="stroke:#181818;stroke-width:1.0;" x1="109.7026" x2="109.7026" y1="104.7266" y2="117.7266"/><line style="stroke:#181818;stroke-width:1.0;" x1="68.7026" x2="109.7026" y1="117.7266" y2="117.7266"/><polygon fill="#181818" points="78.7026,113.7266,68.7026,117.7266,78.7026,121.7266,74.7026,117.7266" style="stroke:#181818;stroke-width:1.0;"/><text fill="#000000" font-family="sans-serif" font-size="13" lengthAdjust="spacing" textLength="76.7813" x="74.7026" y="99.6606">Weeks 1 - 4</text><polygon fill="#181818" points="205.6548,142.8594,215.6548,146.8594,205.6548,150.8594,209.6548,146.8594" style="stroke:#181818;stroke-width:1.0;"/><line style="stroke:#181818;stroke-width:1.0;stroke-dasharray:2.0,2.0;" x1="67.7026" x2="211.6548" y1="146.8594" y2="146.8594"/><text fill="#000000" font-family="sans-serif" font-size="13" lengthAdjust="spacing" textLength="123.4048" x="74.7026" y="141.7935">Start Development</text><line style="stroke:#181818;stroke-width:1.0;" x1="217.6548" x2="259.6548" y1="175.9922" y2="175.9922"/><line style="stroke:#181818;stroke-width:1.0;" x1="259.6548" x2="259.6548" y1="175.9922" y2="188.9922"/><line style="stroke:#181818;stroke-width:1.0;" x1="218.6548" x2="259.6548" y1="188.9922" y2="188.9922"/><polygon fill="#181818" points="228.6548,184.9922,218.6548,188.9922,228.6548,192.9922,224.6548,188.9922" style="stroke:#181818;stroke-width:1.0;"/><text fill="#000000" font-family="sans-serif" font-size="13" lengthAdjust="spacing" textLength="85.0522" x="224.6548" y="170.9263">Weeks 5 - 10</text><polygon fill="#181818" points="378.6133,214.125,388.6133,218.125,378.6133,222.125,382.6133,218.125" style="stroke:#181818;stroke-width:1.0;"/><line style="stroke:#181818;stroke-width:1.0;stroke-dasharray:2.0,2.0;" x1="217.6548" x2="384.6133" y1="218.125" y2="218.125"/><text fill="#000000" font-family="sans-serif" font-size="13" lengthAdjust="spacing" textLength="139.1152" x="224.6548" y="213.0591">Start Implementation</text><line style="stroke:#181818;stroke-width:1.0;" x1="390.6133" x2="432.6133" y1="247.2578" y2="247.2578"/><line style="stroke:#181818;stroke-width:1.0;" x1="432.6133" x2="432.6133" y1="247.2578" y2="260.2578"/><line style="stroke:#181818;stroke-width:1.0;" x1="391.6133" x2="432.6133" y1="260.2578" y2="260.2578"/><polygon fill="#181818" points="401.6133,256.2578,391.6133,260.2578,401.6133,264.2578,397.6133,260.2578" style="stroke:#181818;stroke-width:1.0;"/><text fill="#000000" font-family="sans-serif" font-size="13" lengthAdjust="spacing" textLength="93.3232" x="397.6133" y="242.1919">Weeks 11 - 16</text><polygon fill="#181818" points="530.2471,285.3906,540.2471,289.3906,530.2471,293.3906,534.2471,289.3906" style="stroke:#181818;stroke-width:1.0;"/><line style="stroke:#181818;stroke-width:1.0;stroke-dasharray:2.0,2.0;" x1="390.6133" x2="536.2471" y1="289.3906" y2="289.3906"/><text fill="#000000" font-family="sans-serif" font-size="13" lengthAdjust="spacing" textLength="83.8018" x="397.6133" y="284.3247">Start Testing</text><line style="stroke:#181818;stroke-width:1.0;" x1="542.2471" x2="584.2471" y1="318.5234" y2="318.5234"/><line style="stroke:#181818;stroke-width:1.0;" x1="584.2471" x2="584.2471" y1="318.5234" y2="331.5234"/><line style="stroke:#181818;stroke-width:1.0;" x1="543.2471" x2="584.2471" y1="331.5234" y2="331.5234"/><polygon fill="#181818" points="553.2471,327.5234,543.2471,331.5234,553.2471,335.5234,549.2471,331.5234" style="stroke:#181818;stroke-width:1.0;"/><text fill="#000000" font-family="sans-serif" font-size="13" lengthAdjust="spacing" textLength="93.3232" x="549.2471" y="313.4575">Weeks 17 - 19</text><polygon fill="#181818" points="707.9365,356.6563,717.9365,360.6563,707.9365,364.6563,711.9365,360.6563" style="stroke:#181818;stroke-width:1.0;"/><line style="stroke:#181818;stroke-width:1.0;stroke-dasharray:2.0,2.0;" x1="542.2471" x2="713.9365" y1="360.6563" y2="360.6563"/><text fill="#000000" font-family="sans-serif" font-size="13" lengthAdjust="spacing" textLength="153.6895" x="549.2471" y="355.5903">Finalize Documentation</text><line style="stroke:#181818;stroke-width:1.0;" x1="719.9365" x2="761.9365" y1="389.7891" y2="389.7891"/><line style="stroke:#181818;stroke-width:1.0;" x1="761.9365" x2="761.9365" y1="389.7891" y2="402.7891"/><line style="stroke:#181818;stroke-width:1.0;" x1="720.9365" x2="761.9365" y1="402.7891" y2="402.7891"/><polygon fill="#181818" points="730.9365,398.7891,720.9365,402.7891,730.9365,406.7891,726.9365,402.7891" style="stroke:#181818;stroke-width:1.0;"/><text fill="#000000" font-family="sans-serif" font-size="13" lengthAdjust="spacing" textLength="57.0527" x="726.9365" y="384.7231">Week 20</text><!--SRC=[NO-xRiCm34LtVGMHgHq2s44VQ8PEX05jXYkWis0G3LjPDYmrGxw-D1luDUhg798tSmu4zTX_Kvl1SKU18y73gO1Fef_qQCpWnymj3pvcE3IKo8_j1UgBJtG0dw2fjmZIbK8_T2IFXS8TPRiXqCJup7rSWNO7EagPuzUAS3kYukW3OD_-plEKgz2OfeRZkvnu_gy39HpXILE9KUAFBADWTRD1LN1MdaKf2uqbjxEpRM2iQdRPDAqgNpIN3pTxzqB6gU0MuNKItZINZmhFeCtuHjjofaAu0vC9f-8F]--></g></svg>