<svg xmlns="http://www.w3.org/2000/svg" xmlns:xlink="http://www.w3.org/1999/xlink" contentStyleType="text/css" height="182px" preserveAspectRatio="none" style="width:587px;height:182px;background:#FFFFFF;" version="1.1" viewBox="0 0 587 182" width="587px" zoomAndPan="magnify"><defs/><g><!--entity Robot--><g id="elem_Robot"><rect fill="#F1F1F1" height="46.2969" rx="2.5" ry="2.5" style="stroke:#181818;stroke-width:0.5;" width="81.2344" x="454.25" y="7"/><rect fill="#F1F1F1" height="10" style="stroke:#181818;stroke-width:0.5;" width="15" x="515.4844" y="12"/><rect fill="#F1F1F1" height="2" style="stroke:#181818;stroke-width:0.5;" width="4" x="513.4844" y="14"/><rect fill="#F1F1F1" height="2" style="stroke:#181818;stroke-width:0.5;" width="4" x="513.4844" y="18"/><text fill="#000000" font-family="sans-serif" font-size="14" lengthAdjust="spacing" textLength="41.2344" x="469.25" y="39.9951">Robot</text></g><!--entity Conveyor--><g id="elem_Conveyor"><rect fill="#F1F1F1" height="46.2969" rx="2.5" ry="2.5" style="stroke:#181818;stroke-width:0.5;" width="106.7188" x="23.51" y="130.29"/><rect fill="#F1F1F1" height="10" style="stroke:#181818;stroke-width:0.5;" width="15" x="110.2288" y="135.29"/><rect fill="#F1F1F1" height="2" style="stroke:#181818;stroke-width:0.5;" width="4" x="108.2288" y="137.29"/><rect fill="#F1F1F1" height="2" style="stroke:#181818;stroke-width:0.5;" width="4" x="108.2288" y="141.29"/><text fill="#000000" font-family="sans-serif" font-size="14" lengthAdjust="spacing" textLength="66.7188" x="38.51" y="163.2851">Conveyor</text></g><!--entity Emergency_Stop--><g id="elem_Emergency_Stop"><rect fill="#F1F1F1" height="46.2969" rx="2.5" ry="2.5" style="stroke:#181818;stroke-width:0.5;" width="158.0361" x="181.85" y="7"/><rect fill="#F1F1F1" height="10" style="stroke:#181818;stroke-width:0.5;" width="15" x="319.8861" y="12"/><rect fill="#F1F1F1" height="2" style="stroke:#181818;stroke-width:0.5;" width="4" x="317.8861" y="14"/><rect fill="#F1F1F1" height="2" style="stroke:#181818;stroke-width:0.5;" width="4" x="317.8861" y="18"/><text fill="#000000" font-family="sans-serif" font-size="14" lengthAdjust="spacing" textLength="118.0361" x="196.85" y="39.9951">Emergency_Stop</text></g><!--entity Proximity_Sensor--><g id="elem_Proximity_Sensor"><rect fill="#F1F1F1" height="46.2969" rx="2.5" ry="2.5" style="stroke:#181818;stroke-width:0.5;" width="161.2285" x="414.25" y="130.29"/><rect fill="#F1F1F1" height="10" style="stroke:#181818;stroke-width:0.5;" width="15" x="555.4785" y="135.29"/><rect fill="#F1F1F1" height="2" style="stroke:#181818;stroke-width:0.5;" width="4" x="553.4785" y="137.29"/><rect fill="#F1F1F1" height="2" style="stroke:#181818;stroke-width:0.5;" width="4" x="553.4785" y="141.29"/><text fill="#000000" font-family="sans-serif" font-size="14" lengthAdjust="spacing" textLength="121.2285" x="429.25" y="163.2851">Proximity_Sensor</text></g><!--entity Safety_Barrier--><g id="elem_Safety_Barrier"><rect fill="#F1F1F1" height="46.2969" rx="2.5" ry="2.5" style="stroke:#181818;stroke-width:0.5;" width="139.7363" x="7" y="7"/><rect fill="#F1F1F1" height="10" style="stroke:#181818;stroke-width:0.5;" width="15" x="126.7363" y="12"/><rect fill="#F1F1F1" height="2" style="stroke:#181818;stroke-width:0.5;" width="4" x="124.7363" y="14"/><rect fill="#F1F1F1" height="2" style="stroke:#181818;stroke-width:0.5;" width="4" x="124.7363" y="18"/><text fill="#000000" font-family="sans-serif" font-size="14" lengthAdjust="spacing" textLength="99.7363" x="22" y="39.9951">Safety_Barrier</text></g><!--link Robot to Proximity_Sensor--><g id="link_Robot_Proximity_Sensor"><path d="M494.87,53.68 C494.87,75.46 494.87,102.29 494.87,124.03 " fill="none" id="Robot-to-Proximity_Sensor" style="stroke:#181818;stroke-width:1.0;"/><polygon fill="#181818" points="494.87,130.03,498.87,121.03,494.87,125.03,490.87,121.03,494.87,130.03" style="stroke:#181818;stroke-width:1.0;"/><text fill="#000000" font-family="sans-serif" font-size="13" lengthAdjust="spacing" textLength="83.751" x="495.87" y="96.3569">Monitor Area</text></g><!--reverse link Emergency_Stop to Robot--><g id="link_Emergency_Stop_Robot"><path d="M346.09,30.14 C384.28,30.14 422.47,30.14 453.84,30.14 " fill="none" id="Emergency_Stop-backto-Robot" style="stroke:#181818;stroke-width:1.0;"/><polygon fill="#181818" points="340.09,30.14,349.09,34.14,345.09,30.14,349.09,26.14,340.09,30.14" style="stroke:#181818;stroke-width:1.0;"/><text fill="#000000" font-family="sans-serif" font-size="13" lengthAdjust="spacing" textLength="78.2095" x="358.07" y="23.2069">Stop if Error</text></g><!--reverse link Safety_Barrier to Conveyor--><g id="link_Safety_Barrier_Conveyor"><path d="M76.87,59.68 C76.87,81.46 76.87,108.29 76.87,130.03 " fill="none" id="Safety_Barrier-backto-Conveyor" style="stroke:#181818;stroke-width:1.0;"/><polygon fill="#181818" points="76.87,53.68,72.87,62.68,76.87,58.68,80.87,62.68,76.87,53.68" style="stroke:#181818;stroke-width:1.0;"/><text fill="#000000" font-family="sans-serif" font-size="13" lengthAdjust="spacing" textLength="99.0742" x="77.87" y="96.3569">Prevent Access</text></g><!--SRC=[POvD2i8m48NtESLSe1V8GgZIfI3s01BZH09c9ap6QczlAbGQt0pC- -5xdbDcGb8uyvNL-Dz_O9fmPjb8GqAv8_dvCYhdZN4IViSKjHf8fUcCBc3LzquaeXZpnK1tunTrkx-YXIDJL1Re1TqQVc3G6cxn5fOBCS0WKf7hNkYUkOPRhgqad9OzlVTOoWS0]--></g></svg>