<svg xmlns="http://www.w3.org/2000/svg" xmlns:xlink="http://www.w3.org/1999/xlink" contentStyleType="text/css" height="798px" preserveAspectRatio="none" style="width:491px;height:798px;background:#FFFFFF;" version="1.1" viewBox="0 0 491 798" width="491px" zoomAndPan="magnify"><defs/><g><text fill="#000000" font-family="sans-serif" font-size="14" font-weight="bold" lengthAdjust="spacing" textLength="463.8799" x="10" y="22.9951">Component Diagram - Metal Detection and Sorting System</text><!--cluster Metal Detection System--><g id="cluster_Metal Detection System"><path d="M148.4399,43.2969 L338.5493,43.2969 A3.75,3.75 0 0 1 341.0493,45.7969 L348.0493,65.5938 L348.4399,65.5938 A2.5,2.5 0 0 1 350.9399,68.0938 L350.9399,350.6869 A2.5,2.5 0 0 1 348.4399,353.1869 L148.4399,353.1869 A2.5,2.5 0 0 1 145.9399,350.6869 L145.9399,45.7969 A2.5,2.5 0 0 1 148.4399,43.2969 " fill="none" style="stroke:#000000;stroke-width:1.5;"/><line style="stroke:#000000;stroke-width:1.5;" x1="145.9399" x2="348.0493" y1="65.5938" y2="65.5938"/><text fill="#000000" font-family="sans-serif" font-size="14" font-weight="bold" lengthAdjust="spacing" textLength="189.1094" x="149.9399" y="58.292">Metal Detection System</text></g><!--cluster Control System--><g id="cluster_Control System"><path d="M158.4399,377.1869 L280.5044,377.1869 A3.75,3.75 0 0 1 283.0044,379.6869 L290.0044,399.4838 L337.4399,399.4838 A2.5,2.5 0 0 1 339.9399,401.9838 L339.9399,578.2869 A2.5,2.5 0 0 1 337.4399,580.7869 L158.4399,580.7869 A2.5,2.5 0 0 1 155.9399,578.2869 L155.9399,379.6869 A2.5,2.5 0 0 1 158.4399,377.1869 " fill="none" style="stroke:#000000;stroke-width:1.5;"/><line style="stroke:#000000;stroke-width:1.5;" x1="155.9399" x2="290.0044" y1="399.4838" y2="399.4838"/><text fill="#000000" font-family="sans-serif" font-size="14" font-weight="bold" lengthAdjust="spacing" textLength="121.0645" x="159.9399" y="392.182">Control System</text></g><!--cluster Sorting System--><g id="cluster_Sorting System"><path d="M172.4399,604.7869 L294.7163,604.7869 A3.75,3.75 0 0 1 297.2163,607.2869 L304.2163,627.0838 L323.4399,627.0838 A2.5,2.5 0 0 1 325.9399,629.5838 L325.9399,699.5769 A2.5,2.5 0 0 1 323.4399,702.0769 L172.4399,702.0769 A2.5,2.5 0 0 1 169.9399,699.5769 L169.9399,607.2869 A2.5,2.5 0 0 1 172.4399,604.7869 " fill="none" style="stroke:#000000;stroke-width:1.5;"/><line style="stroke:#000000;stroke-width:1.5;" x1="169.9399" x2="304.2163" y1="627.0838" y2="627.0838"/><text fill="#000000" font-family="sans-serif" font-size="14" font-weight="bold" lengthAdjust="spacing" textLength="121.2764" x="173.9399" y="619.782">Sorting System</text></g><!--entity Conveyor Belt--><g id="elem_Conveyor Belt"><rect fill="#F1F1F1" height="46.2969" rx="2.5" ry="2.5" style="stroke:#181818;stroke-width:0.5;" width="138.7656" x="178.5599" y="78.2969"/><rect fill="#F1F1F1" height="10" style="stroke:#181818;stroke-width:0.5;" width="15" x="297.3256" y="83.2969"/><rect fill="#F1F1F1" height="2" style="stroke:#181818;stroke-width:0.5;" width="4" x="295.3256" y="85.2969"/><rect fill="#F1F1F1" height="2" style="stroke:#181818;stroke-width:0.5;" width="4" x="295.3256" y="89.2969"/><text fill="#000000" font-family="sans-serif" font-size="14" lengthAdjust="spacing" textLength="98.7656" x="193.5599" y="111.292">Conveyor Belt</text></g><!--entity Camera & AI--><g id="elem_Camera &amp; AI"><rect fill="#F1F1F1" height="46.2969" rx="2.5" ry="2.5" style="stroke:#181818;stroke-width:0.5;" width="128.4639" x="183.7099" y="184.5969"/><rect fill="#F1F1F1" height="10" style="stroke:#181818;stroke-width:0.5;" width="15" x="292.1738" y="189.5969"/><rect fill="#F1F1F1" height="2" style="stroke:#181818;stroke-width:0.5;" width="4" x="290.1738" y="191.5969"/><rect fill="#F1F1F1" height="2" style="stroke:#181818;stroke-width:0.5;" width="4" x="290.1738" y="195.5969"/><text fill="#000000" font-family="sans-serif" font-size="14" lengthAdjust="spacing" textLength="88.4639" x="198.7099" y="217.592">Camera &amp; AI</text></g><!--entity AI Processing Unit--><g id="elem_AI Processing Unit"><rect fill="#F1F1F1" height="46.2969" rx="2.5" ry="2.5" style="stroke:#181818;stroke-width:0.5;" width="166.417" x="164.7299" y="290.8969"/><rect fill="#F1F1F1" height="10" style="stroke:#181818;stroke-width:0.5;" width="15" x="311.1469" y="295.8969"/><rect fill="#F1F1F1" height="2" style="stroke:#181818;stroke-width:0.5;" width="4" x="309.1469" y="297.8969"/><rect fill="#F1F1F1" height="2" style="stroke:#181818;stroke-width:0.5;" width="4" x="309.1469" y="301.8969"/><text fill="#000000" font-family="sans-serif" font-size="14" lengthAdjust="spacing" textLength="126.417" x="179.7299" y="323.892">AI Processing Unit</text></g><!--entity Control Unit--><g id="elem_Control Unit"><rect fill="#F1F1F1" height="46.2969" rx="2.5" ry="2.5" style="stroke:#181818;stroke-width:0.5;" width="123.8633" x="186.0099" y="412.1869"/><rect fill="#F1F1F1" height="10" style="stroke:#181818;stroke-width:0.5;" width="15" x="289.8732" y="417.1869"/><rect fill="#F1F1F1" height="2" style="stroke:#181818;stroke-width:0.5;" width="4" x="287.8732" y="419.1869"/><rect fill="#F1F1F1" height="2" style="stroke:#181818;stroke-width:0.5;" width="4" x="287.8732" y="423.1869"/><text fill="#000000" font-family="sans-serif" font-size="14" lengthAdjust="spacing" textLength="83.8633" x="201.0099" y="445.182">Control Unit</text></g><!--entity Cartesian Robot--><g id="elem_Cartesian Robot"><rect fill="#F1F1F1" height="46.2969" rx="2.5" ry="2.5" style="stroke:#181818;stroke-width:0.5;" width="152.5332" x="171.6699" y="518.4869"/><rect fill="#F1F1F1" height="10" style="stroke:#181818;stroke-width:0.5;" width="15" x="304.2031" y="523.4869"/><rect fill="#F1F1F1" height="2" style="stroke:#181818;stroke-width:0.5;" width="4" x="302.2031" y="525.4869"/><rect fill="#F1F1F1" height="2" style="stroke:#181818;stroke-width:0.5;" width="4" x="302.2031" y="529.4869"/><text fill="#000000" font-family="sans-serif" font-size="14" lengthAdjust="spacing" textLength="112.5332" x="186.6699" y="551.482">Cartesian Robot</text></g><!--entity Sorting Bins--><g id="elem_Sorting Bins"><rect fill="#F1F1F1" height="46.2969" rx="2.5" ry="2.5" style="stroke:#181818;stroke-width:0.5;" width="124.458" x="185.7099" y="639.7869"/><rect fill="#F1F1F1" height="10" style="stroke:#181818;stroke-width:0.5;" width="15" x="290.1679" y="644.7869"/><rect fill="#F1F1F1" height="2" style="stroke:#181818;stroke-width:0.5;" width="4" x="288.1679" y="646.7869"/><rect fill="#F1F1F1" height="2" style="stroke:#181818;stroke-width:0.5;" width="4" x="288.1679" y="650.7869"/><text fill="#000000" font-family="sans-serif" font-size="14" lengthAdjust="spacing" textLength="84.458" x="200.7099" y="672.782">Sorting Bins</text></g><!--entity Unknown Bin--><g id="elem_Unknown Bin"><rect fill="#F1F1F1" height="46.2969" rx="2.5" ry="2.5" style="stroke:#181818;stroke-width:0.5;" width="131.8066" x="182.0399" y="746.0769"/><rect fill="#F1F1F1" height="10" style="stroke:#181818;stroke-width:0.5;" width="15" x="293.8466" y="751.0769"/><rect fill="#F1F1F1" height="2" style="stroke:#181818;stroke-width:0.5;" width="4" x="291.8466" y="753.0769"/><rect fill="#F1F1F1" height="2" style="stroke:#181818;stroke-width:0.5;" width="4" x="291.8466" y="757.0769"/><text fill="#000000" font-family="sans-serif" font-size="14" lengthAdjust="spacing" textLength="91.8066" x="197.0399" y="779.072">Unknown Bin</text></g><!--link Conveyor Belt to Camera & AI--><g id="link_Conveyor Belt_Camera &amp; AI"><path d="M247.9399,125.0769 C247.9399,142.5769 247.9399,160.6769 247.9399,178.1569 " fill="none" id="Conveyor Belt-to-Camera &amp; AI" style="stroke:#181818;stroke-width:1.0;"/><polygon fill="#181818" points="247.9399,184.1569,251.9399,175.1569,247.9399,179.1569,243.9399,175.1569,247.9399,184.1569" style="stroke:#181818;stroke-width:1.0;"/></g><!--link Camera & AI to AI Processing Unit--><g id="link_Camera &amp; AI_AI Processing Unit"><path d="M247.9399,231.3769 C247.9399,248.8669 247.9399,266.9669 247.9399,284.4569 " fill="none" id="Camera &amp; AI-to-AI Processing Unit" style="stroke:#181818;stroke-width:1.0;"/><polygon fill="#181818" points="247.9399,290.4569,251.9399,281.4569,247.9399,285.4569,243.9399,281.4569,247.9399,290.4569" style="stroke:#181818;stroke-width:1.0;"/></g><!--link AI Processing Unit to Control Unit--><g id="link_AI Processing Unit_Control Unit"><path d="M247.9399,337.4769 C247.9399,358.8069 247.9399,384.7069 247.9399,405.9969 " fill="none" id="AI Processing Unit-to-Control Unit" style="stroke:#181818;stroke-width:1.0;"/><polygon fill="#181818" points="247.9399,411.9969,251.9399,402.9969,247.9399,406.9969,243.9399,402.9969,247.9399,411.9969" style="stroke:#181818;stroke-width:1.0;"/></g><!--link Control Unit to Cartesian Robot--><g id="link_Control Unit_Cartesian Robot"><path d="M247.9399,458.9669 C247.9399,476.4669 247.9399,494.5669 247.9399,512.0469 " fill="none" id="Control Unit-to-Cartesian Robot" style="stroke:#181818;stroke-width:1.0;"/><polygon fill="#181818" points="247.9399,518.0469,251.9399,509.0469,247.9399,513.0469,243.9399,509.0469,247.9399,518.0469" style="stroke:#181818;stroke-width:1.0;"/></g><!--link Cartesian Robot to Sorting Bins--><g id="link_Cartesian Robot_Sorting Bins"><path d="M247.9399,565.0769 C247.9399,586.4069 247.9399,612.2969 247.9399,633.5969 " fill="none" id="Cartesian Robot-to-Sorting Bins" style="stroke:#181818;stroke-width:1.0;"/><polygon fill="#181818" points="247.9399,639.5969,251.9399,630.5969,247.9399,634.5969,243.9399,630.5969,247.9399,639.5969" style="stroke:#181818;stroke-width:1.0;"/></g><!--link Sorting Bins to Unknown Bin--><g id="link_Sorting Bins_Unknown Bin"><path d="M247.9399,686.5669 C247.9399,704.0569 247.9399,722.1569 247.9399,739.6369 " fill="none" id="Sorting Bins-to-Unknown Bin" style="stroke:#181818;stroke-width:1.0;"/><polygon fill="#181818" points="247.9399,745.6369,251.9399,736.6369,247.9399,740.6369,243.9399,736.6369,247.9399,745.6369" style="stroke:#181818;stroke-width:1.0;"/></g><!--SRC=[RP2x2i9044NxVCN5mYw_8FXeKWYYM4cACGvXCPcHtK4HyT-DRa8UkENbp3qpQyugnbhhcmgBOUEez5GZnPQDAcpOk32d0f8B3khDIOd3CnZNINAZuaebOpQ58p33Aq7pJckLEp_LOyMLvKZJHPDHpPumnpBBMsgGH6QPOUUru12-rgCuovFtGDlqcjTggliprZfRFZPrg_LHjvat3eu4UpthH3d-Wlx2oKniwk2La_2h6ISHEifLz27VAFy0]--></g></svg>