<svg xmlns="http://www.w3.org/2000/svg" xmlns:xlink="http://www.w3.org/1999/xlink" contentStyleType="text/css" height="799px" preserveAspectRatio="none" style="width:1539px;height:799px;background:#FFFFFF;" version="1.1" viewBox="0 0 1539 799" width="1539px" zoomAndPan="magnify"><defs/><g><line style="stroke:#181818;stroke-width:0.5;stroke-dasharray:5.0,5.0;" x1="23" x2="23" y1="81.2969" y2="718.5547"/><line style="stroke:#181818;stroke-width:0.5;stroke-dasharray:5.0,5.0;" x1="172.8018" x2="172.8018" y1="81.2969" y2="718.5547"/><line style="stroke:#181818;stroke-width:0.5;stroke-dasharray:5.0,5.0;" x1="408.6782" x2="408.6782" y1="81.2969" y2="718.5547"/><line style="stroke:#181818;stroke-width:0.5;stroke-dasharray:5.0,5.0;" x1="643.3442" x2="643.3442" y1="81.2969" y2="718.5547"/><line style="stroke:#181818;stroke-width:0.5;stroke-dasharray:5.0,5.0;" x1="953.959" x2="953.959" y1="81.2969" y2="718.5547"/><line style="stroke:#181818;stroke-width:0.5;stroke-dasharray:5.0,5.0;" x1="1086.4102" x2="1086.4102" y1="81.2969" y2="718.5547"/><line style="stroke:#181818;stroke-width:0.5;stroke-dasharray:5.0,5.0;" x1="1284.8306" x2="1284.8306" y1="81.2969" y2="718.5547"/><text fill="#000000" font-family="sans-serif" font-size="14" lengthAdjust="spacing" textLength="31.9102" x="5" y="77.9951">User</text><ellipse cx="23.9551" cy="13.5" fill="#E2E2F0" rx="8" ry="8" style="stroke:#181818;stroke-width:0.5;"/><path d="M23.9551,21.5 L23.9551,48.5 M10.9551,29.5 L36.9551,29.5 M23.9551,48.5 L10.9551,63.5 M23.9551,48.5 L36.9551,63.5 " fill="none" style="stroke:#181818;stroke-width:0.5;"/><text fill="#000000" font-family="sans-serif" font-size="14" lengthAdjust="spacing" textLength="31.9102" x="5" y="730.5498">User</text><ellipse cx="23.9551" cy="742.3516" fill="#E2E2F0" rx="8" ry="8" style="stroke:#181818;stroke-width:0.5;"/><path d="M23.9551,750.3516 L23.9551,777.3516 M10.9551,758.3516 L36.9551,758.3516 M23.9551,777.3516 L10.9551,792.3516 M23.9551,777.3516 L36.9551,792.3516 " fill="none" style="stroke:#181818;stroke-width:0.5;"/><text fill="#000000" font-family="sans-serif" font-size="14" lengthAdjust="spacing" textLength="94.3154" x="122.8018" y="77.9951">ConveyorBelt</text><ellipse cx="172.9595" cy="13.5" fill="#E2E2F0" rx="8" ry="8" style="stroke:#181818;stroke-width:0.5;"/><path d="M172.9595,21.5 L172.9595,48.5 M159.9595,29.5 L185.9595,29.5 M172.9595,48.5 L159.9595,63.5 M172.9595,48.5 L185.9595,63.5 " fill="none" style="stroke:#181818;stroke-width:0.5;"/><text fill="#000000" font-family="sans-serif" font-size="14" lengthAdjust="spacing" textLength="94.3154" x="122.8018" y="730.5498">ConveyorBelt</text><ellipse cx="172.9595" cy="742.3516" fill="#E2E2F0" rx="8" ry="8" style="stroke:#181818;stroke-width:0.5;"/><path d="M172.9595,750.3516 L172.9595,777.3516 M159.9595,758.3516 L185.9595,758.3516 M172.9595,777.3516 L159.9595,792.3516 M172.9595,777.3516 L185.9595,792.3516 " fill="none" style="stroke:#181818;stroke-width:0.5;"/><text fill="#000000" font-family="sans-serif" font-size="14" lengthAdjust="spacing" textLength="84.1162" x="363.6782" y="77.9951">LineCamera</text><ellipse cx="408.7363" cy="13.5" fill="#E2E2F0" rx="8" ry="8" style="stroke:#181818;stroke-width:0.5;"/><path d="M408.7363,21.5 L408.7363,48.5 M395.7363,29.5 L421.7363,29.5 M408.7363,48.5 L395.7363,63.5 M408.7363,48.5 L421.7363,63.5 " fill="none" style="stroke:#181818;stroke-width:0.5;"/><text fill="#000000" font-family="sans-serif" font-size="14" lengthAdjust="spacing" textLength="84.1162" x="363.6782" y="730.5498">LineCamera</text><ellipse cx="408.7363" cy="742.3516" fill="#E2E2F0" rx="8" ry="8" style="stroke:#181818;stroke-width:0.5;"/><path d="M408.7363,750.3516 L408.7363,777.3516 M395.7363,758.3516 L421.7363,758.3516 M408.7363,777.3516 L395.7363,792.3516 M408.7363,777.3516 L421.7363,792.3516 " fill="none" style="stroke:#181818;stroke-width:0.5;"/><text fill="#000000" font-family="sans-serif" font-size="14" lengthAdjust="spacing" textLength="96.7764" x="592.3442" y="77.9951">AIRecognition</text><ellipse cx="643.7324" cy="13.5" fill="#E2E2F0" rx="8" ry="8" style="stroke:#181818;stroke-width:0.5;"/><path d="M643.7324,21.5 L643.7324,48.5 M630.7324,29.5 L656.7324,29.5 M643.7324,48.5 L630.7324,63.5 M643.7324,48.5 L656.7324,63.5 " fill="none" style="stroke:#181818;stroke-width:0.5;"/><text fill="#000000" font-family="sans-serif" font-size="14" lengthAdjust="spacing" textLength="96.7764" x="592.3442" y="730.5498">AIRecognition</text><ellipse cx="643.7324" cy="742.3516" fill="#E2E2F0" rx="8" ry="8" style="stroke:#181818;stroke-width:0.5;"/><path d="M643.7324,750.3516 L643.7324,777.3516 M630.7324,758.3516 L656.7324,758.3516 M643.7324,777.3516 L630.7324,792.3516 M643.7324,777.3516 L656.7324,792.3516 " fill="none" style="stroke:#181818;stroke-width:0.5;"/><text fill="#000000" font-family="sans-serif" font-size="14" lengthAdjust="spacing" textLength="105.4512" x="898.959" y="77.9951">MetalDatabase</text><ellipse cx="954.6846" cy="13.5" fill="#E2E2F0" rx="8" ry="8" style="stroke:#181818;stroke-width:0.5;"/><path d="M954.6846,21.5 L954.6846,48.5 M941.6846,29.5 L967.6846,29.5 M954.6846,48.5 L941.6846,63.5 M954.6846,48.5 L967.6846,63.5 " fill="none" style="stroke:#181818;stroke-width:0.5;"/><text fill="#000000" font-family="sans-serif" font-size="14" lengthAdjust="spacing" textLength="105.4512" x="898.959" y="730.5498">MetalDatabase</text><ellipse cx="954.6846" cy="742.3516" fill="#E2E2F0" rx="8" ry="8" style="stroke:#181818;stroke-width:0.5;"/><path d="M954.6846,750.3516 L954.6846,777.3516 M941.6846,758.3516 L967.6846,758.3516 M954.6846,777.3516 L941.6846,792.3516 M954.6846,777.3516 L967.6846,792.3516 " fill="none" style="stroke:#181818;stroke-width:0.5;"/><text fill="#000000" font-family="sans-serif" font-size="14" lengthAdjust="spacing" textLength="126.1025" x="1020.4102" y="77.9951">PositionCalculator</text><ellipse cx="1086.4614" cy="13.5" fill="#E2E2F0" rx="8" ry="8" style="stroke:#181818;stroke-width:0.5;"/><path d="M1086.4614,21.5 L1086.4614,48.5 M1073.4614,29.5 L1099.4614,29.5 M1086.4614,48.5 L1073.4614,63.5 M1086.4614,48.5 L1099.4614,63.5 " fill="none" style="stroke:#181818;stroke-width:0.5;"/><text fill="#000000" font-family="sans-serif" font-size="14" lengthAdjust="spacing" textLength="126.1025" x="1020.4102" y="730.5498">PositionCalculator</text><ellipse cx="1086.4614" cy="742.3516" fill="#E2E2F0" rx="8" ry="8" style="stroke:#181818;stroke-width:0.5;"/><path d="M1086.4614,750.3516 L1086.4614,777.3516 M1073.4614,758.3516 L1099.4614,758.3516 M1086.4614,777.3516 L1073.4614,792.3516 M1086.4614,777.3516 L1099.4614,792.3516 " fill="none" style="stroke:#181818;stroke-width:0.5;"/><text fill="#000000" font-family="sans-serif" font-size="14" lengthAdjust="spacing" textLength="70.2051" x="1246.8306" y="77.9951">RobotArm</text><ellipse cx="1284.9331" cy="13.5" fill="#E2E2F0" rx="8" ry="8" style="stroke:#181818;stroke-width:0.5;"/><path d="M1284.9331,21.5 L1284.9331,48.5 M1271.9331,29.5 L1297.9331,29.5 M1284.9331,48.5 L1271.9331,63.5 M1284.9331,48.5 L1297.9331,63.5 " fill="none" style="stroke:#181818;stroke-width:0.5;"/><text fill="#000000" font-family="sans-serif" font-size="14" lengthAdjust="spacing" textLength="70.2051" x="1246.8306" y="730.5498">RobotArm</text><ellipse cx="1284.9331" cy="742.3516" fill="#E2E2F0" rx="8" ry="8" style="stroke:#181818;stroke-width:0.5;"/><path d="M1284.9331,750.3516 L1284.9331,777.3516 M1271.9331,758.3516 L1297.9331,758.3516 M1284.9331,777.3516 L1271.9331,792.3516 M1284.9331,777.3516 L1297.9331,792.3516 " fill="none" style="stroke:#181818;stroke-width:0.5;"/><rect fill="#EEEEEE" height="3" style="stroke:#EEEEEE;stroke-width:1.0;" width="1532.311" x="0" y="111.8633"/><line style="stroke:#000000;stroke-width:1.0;" x1="0" x2="1532.311" y1="111.8633" y2="111.8633"/><line style="stroke:#000000;stroke-width:1.0;" x1="0" x2="1532.311" y1="114.8633" y2="114.8633"/><rect fill="#EEEEEE" height="23.1328" style="stroke:#000000;stroke-width:2.0;" width="162.7827" x="684.7642" y="101.2969"/><text fill="#000000" font-family="sans-serif" font-size="13" font-weight="bold" lengthAdjust="spacing" textLength="144.2568" x="690.7642" y="117.3638">Start Conveyor Belt</text><polygon fill="#181818" points="160.9595,151.5625,170.9595,155.5625,160.9595,159.5625,164.9595,155.5625" style="stroke:#181818;stroke-width:1.0;"/><line style="stroke:#181818;stroke-width:1.0;" x1="23.9551" x2="166.9595" y1="155.5625" y2="155.5625"/><text fill="#000000" font-family="sans-serif" font-size="13" lengthAdjust="spacing" textLength="125.0044" x="30.9551" y="150.4966">Start conveyor belt</text><rect fill="#EEEEEE" height="3" style="stroke:#EEEEEE;stroke-width:1.0;" width="1532.311" x="0" y="184.1289"/><line style="stroke:#000000;stroke-width:1.0;" x1="0" x2="1532.311" y1="184.1289" y2="184.1289"/><line style="stroke:#000000;stroke-width:1.0;" x1="0" x2="1532.311" y1="187.1289" y2="187.1289"/><rect fill="#EEEEEE" height="23.1328" style="stroke:#000000;stroke-width:2.0;" width="135.4497" x="698.4307" y="173.5625"/><text fill="#000000" font-family="sans-serif" font-size="13" font-weight="bold" lengthAdjust="spacing" textLength="116.9238" x="704.4307" y="189.6294">Metal Detection</text><polygon fill="#181818" points="396.7363,223.8281,406.7363,227.8281,396.7363,231.8281,400.7363,227.8281" style="stroke:#181818;stroke-width:1.0;"/><line style="stroke:#181818;stroke-width:1.0;" x1="172.9595" x2="402.7363" y1="227.8281" y2="227.8281"/><text fill="#000000" font-family="sans-serif" font-size="13" lengthAdjust="spacing" textLength="211.7769" x="179.9595" y="222.7622">Move metal objects on conveyor</text><line style="stroke:#181818;stroke-width:1.0;" x1="408.7363" x2="450.7363" y1="256.9609" y2="256.9609"/><line style="stroke:#181818;stroke-width:1.0;" x1="450.7363" x2="450.7363" y1="256.9609" y2="269.9609"/><line style="stroke:#181818;stroke-width:1.0;" x1="409.7363" x2="450.7363" y1="269.9609" y2="269.9609"/><polygon fill="#181818" points="419.7363,265.9609,409.7363,269.9609,419.7363,273.9609,415.7363,269.9609" style="stroke:#181818;stroke-width:1.0;"/><text fill="#000000" font-family="sans-serif" font-size="13" lengthAdjust="spacing" textLength="218.9814" x="415.7363" y="251.895">Detect metals and capture image</text><polygon fill="#181818" points="631.7324,295.0938,641.7324,299.0938,631.7324,303.0938,635.7324,299.0938" style="stroke:#181818;stroke-width:1.0;"/><line style="stroke:#181818;stroke-width:1.0;" x1="408.7363" x2="637.7324" y1="299.0938" y2="299.0938"/><text fill="#000000" font-family="sans-serif" font-size="13" lengthAdjust="spacing" textLength="210.9961" x="415.7363" y="294.0278">Send image to AI for recognition</text><rect fill="#EEEEEE" height="3" style="stroke:#EEEEEE;stroke-width:1.0;" width="1532.311" x="0" y="327.6602"/><line style="stroke:#000000;stroke-width:1.0;" x1="0" x2="1532.311" y1="327.6602" y2="327.6602"/><line style="stroke:#000000;stroke-width:1.0;" x1="0" x2="1532.311" y1="330.6602" y2="330.6602"/><rect fill="#EEEEEE" height="23.1328" style="stroke:#000000;stroke-width:2.0;" width="171.0093" x="680.6509" y="317.0938"/><text fill="#000000" font-family="sans-serif" font-size="13" font-weight="bold" lengthAdjust="spacing" textLength="152.4834" x="686.6509" y="333.1606">AI Metal Recognition</text><polygon fill="#181818" points="942.6846,367.3594,952.6846,371.3594,942.6846,375.3594,946.6846,371.3594" style="stroke:#181818;stroke-width:1.0;"/><line style="stroke:#181818;stroke-width:1.0;" x1="643.7324" x2="948.6846" y1="371.3594" y2="371.3594"/><text fill="#000000" font-family="sans-serif" font-size="13" lengthAdjust="spacing" textLength="241.4648" x="650.7324" y="366.2935">Compare image with metal database</text><polygon fill="#181818" points="654.7324,396.4922,644.7324,400.4922,654.7324,404.4922,650.7324,400.4922" style="stroke:#181818;stroke-width:1.0;"/><line style="stroke:#181818;stroke-width:1.0;stroke-dasharray:2.0,2.0;" x1="648.7324" x2="953.6846" y1="400.4922" y2="400.4922"/><text fill="#000000" font-family="sans-serif" font-size="13" lengthAdjust="spacing" textLength="286.9521" x="660.7324" y="395.4263">Return metal type (e.g., Copper, Aluminum)</text><rect fill="#EEEEEE" height="3" style="stroke:#EEEEEE;stroke-width:1.0;" width="1532.311" x="0" y="429.0586"/><line style="stroke:#000000;stroke-width:1.0;" x1="0" x2="1532.311" y1="429.0586" y2="429.0586"/><line style="stroke:#000000;stroke-width:1.0;" x1="0" x2="1532.311" y1="432.0586" y2="432.0586"/><rect fill="#EEEEEE" height="23.1328" style="stroke:#000000;stroke-width:2.0;" width="167.4165" x="682.4473" y="418.4922"/><text fill="#000000" font-family="sans-serif" font-size="13" font-weight="bold" lengthAdjust="spacing" textLength="148.8906" x="688.4473" y="434.5591">Location Calculation</text><polygon fill="#181818" points="1074.4614,468.7578,1084.4614,472.7578,1074.4614,476.7578,1078.4614,472.7578" style="stroke:#181818;stroke-width:1.0;"/><line style="stroke:#181818;stroke-width:1.0;" x1="643.7324" x2="1080.4614" y1="472.7578" y2="472.7578"/><text fill="#000000" font-family="sans-serif" font-size="13" lengthAdjust="spacing" textLength="235.0029" x="650.7324" y="467.6919">Send metal type and detection time</text><polygon fill="#181818" points="183.9595,497.8906,173.9595,501.8906,183.9595,505.8906,179.9595,501.8906" style="stroke:#181818;stroke-width:1.0;"/><line style="stroke:#181818;stroke-width:1.0;" x1="177.9595" x2="1085.4614" y1="501.8906" y2="501.8906"/><text fill="#000000" font-family="sans-serif" font-size="13" lengthAdjust="spacing" textLength="162.335" x="189.9595" y="496.8247">Retrieve conveyor speed</text><polygon fill="#181818" points="1272.9331,527.0234,1282.9331,531.0234,1272.9331,535.0234,1276.9331,531.0234" style="stroke:#181818;stroke-width:1.0;"/><line style="stroke:#181818;stroke-width:1.0;" x1="1086.4614" x2="1278.9331" y1="531.0234" y2="531.0234"/><text fill="#000000" font-family="sans-serif" font-size="13" lengthAdjust="spacing" textLength="174.4717" x="1093.4614" y="525.9575">Calculate position of metal</text><rect fill="#EEEEEE" height="3" style="stroke:#EEEEEE;stroke-width:1.0;" width="1532.311" x="0" y="559.5898"/><line style="stroke:#000000;stroke-width:1.0;" x1="0" x2="1532.311" y1="559.5898" y2="559.5898"/><line style="stroke:#000000;stroke-width:1.0;" x1="0" x2="1532.311" y1="562.5898" y2="562.5898"/><rect fill="#EEEEEE" height="23.1328" style="stroke:#000000;stroke-width:2.0;" width="147.6118" x="692.3496" y="549.0234"/><text fill="#000000" font-family="sans-serif" font-size="13" font-weight="bold" lengthAdjust="spacing" textLength="129.0859" x="698.3496" y="565.0903">Robot Arm Action</text><line style="stroke:#181818;stroke-width:1.0;" x1="1284.9331" x2="1326.9331" y1="603.2891" y2="603.2891"/><line style="stroke:#181818;stroke-width:1.0;" x1="1326.9331" x2="1326.9331" y1="603.2891" y2="616.2891"/><line style="stroke:#181818;stroke-width:1.0;" x1="1285.9331" x2="1326.9331" y1="616.2891" y2="616.2891"/><polygon fill="#181818" points="1295.9331,612.2891,1285.9331,616.2891,1295.9331,620.2891,1291.9331,616.2891" style="stroke:#181818;stroke-width:1.0;"/><text fill="#000000" font-family="sans-serif" font-size="13" lengthAdjust="spacing" textLength="178.8389" x="1291.9331" y="598.2231">Move to calculated position</text><line style="stroke:#181818;stroke-width:1.0;" x1="1284.9331" x2="1326.9331" y1="645.4219" y2="645.4219"/><line style="stroke:#181818;stroke-width:1.0;" x1="1326.9331" x2="1326.9331" y1="645.4219" y2="658.4219"/><line style="stroke:#181818;stroke-width:1.0;" x1="1285.9331" x2="1326.9331" y1="658.4219" y2="658.4219"/><polygon fill="#181818" points="1295.9331,654.4219,1285.9331,658.4219,1295.9331,662.4219,1291.9331,658.4219" style="stroke:#181818;stroke-width:1.0;"/><text fill="#000000" font-family="sans-serif" font-size="13" lengthAdjust="spacing" textLength="88.2197" x="1291.9331" y="640.356">Pick up metal</text><line style="stroke:#181818;stroke-width:1.0;" x1="1284.9331" x2="1326.9331" y1="687.5547" y2="687.5547"/><line style="stroke:#181818;stroke-width:1.0;" x1="1326.9331" x2="1326.9331" y1="687.5547" y2="700.5547"/><line style="stroke:#181818;stroke-width:1.0;" x1="1285.9331" x2="1326.9331" y1="700.5547" y2="700.5547"/><polygon fill="#181818" points="1295.9331,696.5547,1285.9331,700.5547,1295.9331,704.5547,1291.9331,700.5547" style="stroke:#181818;stroke-width:1.0;"/><text fill="#000000" font-family="sans-serif" font-size="13" lengthAdjust="spacing" textLength="233.3779" x="1291.9331" y="682.4888">Place metal in the correct container</text><!--SRC=[LLBHQiCm37pFL-XnWxOVCCWWTLyAAOICVO3YgAstE3QEqz6_d-pOMVPcJgVJIMUKtZZudCWL69_2Z0zw6dUamGDE88wfKAkH16fo6E1Q9BWwjoJDRLHUcJ5KgdEgNCZZS4AF7KuKAgSirPWfqWKESXumG5nkicHhEkChfmFOLaLHbl3XqVdL6qHpPLa4tx1_PvFmbZWoSphcnDxe0qxaIKQFtCTyxge5TrtCWq17Ykc-c381Sx9AmPpCN1GMxWGuzY3H-jaHA8qtIjJg7AmGLoCAtWJeoeRStvsYBuONQzi3iZd6MUSKLX96Mym3u4VvUxBQfxCMJDldgIsncp4n_DCIlD3XTjYnZBNaTb0DirRZh5_Z_Df8Z3Dp3F_cDoBliT4BI_Vh8RtIL3HY3O3dEqLypZM3oHBrYT9MOQ4qYi2cFm3ckao8dcBq4BAlrh2uCRV7iFYYCilqgywMrYZv3RDDkjl2W3AdhNY1U_3gN8YLFNlaB-v-0G00]--></g></svg>