<svg xmlns="http://www.w3.org/2000/svg" xmlns:xlink="http://www.w3.org/1999/xlink" contentStyleType="text/css" height="269px" preserveAspectRatio="none" style="width:379px;height:269px;background:#FFFFFF;" version="1.1" viewBox="0 0 379 269" width="379px" zoomAndPan="magnify"><defs/><g><line style="stroke:#181818;stroke-width:0.5;stroke-dasharray:5.0,5.0;" x1="39" x2="39" y1="81.2969" y2="188.6953"/><line style="stroke:#181818;stroke-width:0.5;stroke-dasharray:5.0,5.0;" x1="147.665" x2="147.665" y1="81.2969" y2="188.6953"/><line style="stroke:#181818;stroke-width:0.5;stroke-dasharray:5.0,5.0;" x1="267.689" x2="267.689" y1="81.2969" y2="188.6953"/><line style="stroke:#181818;stroke-width:0.5;stroke-dasharray:5.0,5.0;" x1="345.4077" x2="345.4077" y1="81.2969" y2="188.6953"/><text fill="#000000" font-family="sans-serif" font-size="14" lengthAdjust="spacing" textLength="62.665" x="5" y="77.9951">Operator</text><ellipse cx="39.3325" cy="13.5" fill="#E2E2F0" rx="8" ry="8" style="stroke:#181818;stroke-width:0.5;"/><path d="M39.3325,21.5 L39.3325,48.5 M26.3325,29.5 L52.3325,29.5 M39.3325,48.5 L26.3325,63.5 M39.3325,48.5 L52.3325,63.5 " fill="none" style="stroke:#181818;stroke-width:0.5;"/><text fill="#000000" font-family="sans-serif" font-size="14" lengthAdjust="spacing" textLength="62.665" x="5" y="200.6904">Operator</text><ellipse cx="39.3325" cy="212.4922" fill="#E2E2F0" rx="8" ry="8" style="stroke:#181818;stroke-width:0.5;"/><path d="M39.3325,220.4922 L39.3325,247.4922 M26.3325,228.4922 L52.3325,228.4922 M39.3325,247.4922 L26.3325,262.4922 M39.3325,247.4922 L52.3325,262.4922 " fill="none" style="stroke:#181818;stroke-width:0.5;"/><rect fill="#E2E2F0" height="30.2969" rx="2.5" ry="2.5" style="stroke:#181818;stroke-width:0.5;" width="129.4863" x="83.665" y="50"/><text fill="#000000" font-family="sans-serif" font-size="14" lengthAdjust="spacing" textLength="115.4863" x="90.665" y="69.9951">Emergency Stop</text><rect fill="#E2E2F0" height="30.2969" rx="2.5" ry="2.5" style="stroke:#181818;stroke-width:0.5;" width="129.4863" x="83.665" y="187.6953"/><text fill="#000000" font-family="sans-serif" font-size="14" lengthAdjust="spacing" textLength="115.4863" x="90.665" y="207.6904">Emergency Stop</text><rect fill="#E2E2F0" height="30.2969" rx="2.5" ry="2.5" style="stroke:#181818;stroke-width:0.5;" width="80.7188" x="227.689" y="50"/><text fill="#000000" font-family="sans-serif" font-size="14" lengthAdjust="spacing" textLength="66.7188" x="234.689" y="69.9951">Conveyor</text><rect fill="#E2E2F0" height="30.2969" rx="2.5" ry="2.5" style="stroke:#181818;stroke-width:0.5;" width="80.7188" x="227.689" y="187.6953"/><text fill="#000000" font-family="sans-serif" font-size="14" lengthAdjust="spacing" textLength="66.7188" x="234.689" y="207.6904">Conveyor</text><rect fill="#E2E2F0" height="30.2969" rx="2.5" ry="2.5" style="stroke:#181818;stroke-width:0.5;" width="55.2344" x="318.4077" y="50"/><text fill="#000000" font-family="sans-serif" font-size="14" lengthAdjust="spacing" textLength="41.2344" x="325.4077" y="69.9951">Robot</text><rect fill="#E2E2F0" height="30.2969" rx="2.5" ry="2.5" style="stroke:#181818;stroke-width:0.5;" width="55.2344" x="318.4077" y="187.6953"/><text fill="#000000" font-family="sans-serif" font-size="14" lengthAdjust="spacing" textLength="41.2344" x="325.4077" y="207.6904">Robot</text><polygon fill="#181818" points="136.4082,108.4297,146.4082,112.4297,136.4082,116.4297,140.4082,112.4297" style="stroke:#181818;stroke-width:1.0;"/><line style="stroke:#181818;stroke-width:1.0;" x1="39.3325" x2="142.4082" y1="112.4297" y2="112.4297"/><text fill="#000000" font-family="sans-serif" font-size="13" lengthAdjust="spacing" textLength="46.7441" x="46.3325" y="107.3638">Trigger</text><polygon fill="#181818" points="256.0483,137.5625,266.0483,141.5625,256.0483,145.5625,260.0483,141.5625" style="stroke:#181818;stroke-width:1.0;"/><line style="stroke:#181818;stroke-width:1.0;stroke-dasharray:2.0,2.0;" x1="148.4082" x2="262.0483" y1="141.5625" y2="141.5625"/><text fill="#000000" font-family="sans-serif" font-size="13" lengthAdjust="spacing" textLength="95.6401" x="155.4082" y="136.4966">Stop Conveyor</text><polygon fill="#181818" points="334.0249,166.6953,344.0249,170.6953,334.0249,174.6953,338.0249,170.6953" style="stroke:#181818;stroke-width:1.0;"/><line style="stroke:#181818;stroke-width:1.0;stroke-dasharray:2.0,2.0;" x1="148.4082" x2="340.0249" y1="170.6953" y2="170.6953"/><text fill="#000000" font-family="sans-serif" font-size="13" lengthAdjust="spacing" textLength="71.9761" x="155.4082" y="165.6294">Stop Robot</text><!--SRC=[IqmkoIzIy2z8BKe4ChXW30LTEmKbrzpKelJKlEHAXU2I_08bAuMGeipqzDGYBdGP1LsWSkVylBBKolmYAx0Od8jTSL1-Kdu9L2MO3G00]--></g></svg>