<svg xmlns="http://www.w3.org/2000/svg" xmlns:xlink="http://www.w3.org/1999/xlink" contentStyleType="text/css" height="930px" preserveAspectRatio="none" style="width:516px;height:930px;background:#FFFFFF;" version="1.1" viewBox="0 0 516 930" width="516px" zoomAndPan="magnify"><defs/><g><text fill="#000000" font-family="sans-serif" font-size="14" font-weight="bold" lengthAdjust="spacing" textLength="371.6904" x="70.6714" y="32.9951">Process Diagram - Metal Detection and Sorting</text><ellipse cx="276.9058" cy="57.2969" fill="#222222" rx="10" ry="10" style="stroke:#222222;stroke-width:1.0;"/><rect fill="#F1F1F1" height="33.9688" rx="12.5" ry="12.5" style="stroke:#181818;stroke-width:0.5;" width="99.5059" x="227.1528" y="87.2969"/><text fill="#000000" font-family="sans-serif" font-size="12" lengthAdjust="spacing" textLength="79.5059" x="237.1528" y="108.4355">Start process</text><rect fill="#F1F1F1" height="33.9688" rx="12.5" ry="12.5" style="stroke:#181818;stroke-width:0.5;" width="164.2168" x="194.7974" y="141.2656"/><text fill="#000000" font-family="sans-serif" font-size="12" lengthAdjust="spacing" textLength="144.2168" x="204.7974" y="162.4043">Metals on conveyor belt</text><rect fill="none" height="190.2031" style="stroke:#000000;stroke-width:1.5;" width="200.6992" x="176.5562" y="185.2344"/><path d="M275.02,185.2344 L275.02,194.5313 L265.02,204.5313 L176.5562,204.5313 " fill="none" style="stroke:#000000;stroke-width:1.5;"/><text fill="#000000" font-family="sans-serif" font-size="14" lengthAdjust="spacing" textLength="88.4639" x="179.5562" y="199.2295">Camera &amp; AI</text><rect fill="#F1F1F1" height="33.9688" rx="12.5" ry="12.5" style="stroke:#181818;stroke-width:0.5;" width="98.293" x="227.7593" y="221.5313"/><text fill="#000000" font-family="sans-serif" font-size="12" lengthAdjust="spacing" textLength="78.293" x="237.7593" y="242.6699">Detect metal</text><rect fill="#F1F1F1" height="33.9688" rx="12.5" ry="12.5" style="stroke:#181818;stroke-width:0.5;" width="134.4102" x="209.7007" y="275.5"/><text fill="#000000" font-family="sans-serif" font-size="12" lengthAdjust="spacing" textLength="114.4102" x="219.7007" y="296.6387">Identify metal type</text><rect fill="#F1F1F1" height="33.9688" rx="12.5" ry="12.5" style="stroke:#181818;stroke-width:0.5;" width="180.6992" x="186.5562" y="329.4688"/><text fill="#000000" font-family="sans-serif" font-size="12" lengthAdjust="spacing" textLength="160.6992" x="196.5562" y="350.6074">Determine location on belt</text><polygon fill="#F1F1F1" points="211.7007,395.4375,342.1108,395.4375,354.1108,407.4375,342.1108,419.4375,211.7007,419.4375,199.7007,407.4375,211.7007,395.4375" style="stroke:#181818;stroke-width:0.5;"/><text fill="#000000" font-family="sans-serif" font-size="11" lengthAdjust="spacing" textLength="130.4102" x="211.7007" y="411.2456">Is metal type detected?</text><text fill="#000000" font-family="sans-serif" font-size="11" lengthAdjust="spacing" textLength="19.2178" x="180.4829" y="404.8433">Yes</text><text fill="#000000" font-family="sans-serif" font-size="11" lengthAdjust="spacing" textLength="14.9585" x="354.1108" y="404.8433">No</text><rect fill="#F1F1F1" height="33.9688" rx="12.5" ry="12.5" style="stroke:#181818;stroke-width:0.5;" width="274.7949" x="11" y="429.4375"/><text fill="#000000" font-family="sans-serif" font-size="12" lengthAdjust="spacing" textLength="254.7949" x="21" y="450.5762">Send location and type to Cartesian Robot</text><rect fill="#F1F1F1" height="33.9688" rx="12.5" ry="12.5" style="stroke:#181818;stroke-width:0.5;" width="199.2383" x="305.7949" y="429.4375"/><text fill="#000000" font-family="sans-serif" font-size="12" lengthAdjust="spacing" textLength="179.2383" x="315.7949" y="450.5762">Object moves to unknown bin</text><ellipse cx="405.4141" cy="494.4063" fill="none" rx="11" ry="11" style="stroke:#222222;stroke-width:1.0;"/><ellipse cx="405.4141" cy="494.4063" fill="#222222" rx="6" ry="6" style="stroke:#222222;stroke-width:1.0;"/><rect fill="none" height="308.1719" style="stroke:#000000;stroke-width:1.5;" width="380.9863" x="79.8516" y="515.4063"/><path d="M202.3848,515.4063 L202.3848,524.7031 L192.3848,534.7031 L79.8516,534.7031 " fill="none" style="stroke:#000000;stroke-width:1.5;"/><text fill="#000000" font-family="sans-serif" font-size="14" lengthAdjust="spacing" textLength="112.5332" x="82.8516" y="529.4014">Cartesian Robot</text><rect fill="#F1F1F1" height="33.9688" rx="12.5" ry="12.5" style="stroke:#181818;stroke-width:0.5;" width="175.959" x="188.9263" y="551.7031"/><text fill="#000000" font-family="sans-serif" font-size="12" lengthAdjust="spacing" textLength="155.959" x="198.9263" y="572.8418">Receive location and type</text><rect fill="#F1F1F1" height="33.9688" rx="12.5" ry="12.5" style="stroke:#181818;stroke-width:0.5;" width="157.666" x="198.0728" y="605.6719"/><text fill="#000000" font-family="sans-serif" font-size="12" lengthAdjust="spacing" textLength="137.666" x="208.0728" y="626.8105">Move to metal position</text><rect fill="#F1F1F1" height="33.9688" rx="12.5" ry="12.5" style="stroke:#181818;stroke-width:0.5;" width="87.4824" x="233.1646" y="659.6406"/><text fill="#000000" font-family="sans-serif" font-size="12" lengthAdjust="spacing" textLength="67.4824" x="243.1646" y="680.7793">Grab metal</text><polygon fill="#F1F1F1" points="214.6763,713.6094,339.1353,713.6094,351.1353,725.6094,339.1353,737.6094,214.6763,737.6094,202.6763,725.6094,214.6763,713.6094" style="stroke:#181818;stroke-width:0.5;"/><text fill="#000000" font-family="sans-serif" font-size="11" lengthAdjust="spacing" textLength="124.459" x="214.6763" y="729.4175">Is correct bin for type?</text><text fill="#000000" font-family="sans-serif" font-size="11" lengthAdjust="spacing" textLength="19.2178" x="183.4585" y="723.0151">Yes</text><text fill="#000000" font-family="sans-serif" font-size="11" lengthAdjust="spacing" textLength="14.9585" x="351.1353" y="723.0151">No</text><rect fill="#F1F1F1" height="33.9688" rx="12.5" ry="12.5" style="stroke:#181818;stroke-width:0.5;" width="173.6152" x="99.8516" y="747.6094"/><text fill="#000000" font-family="sans-serif" font-size="12" lengthAdjust="spacing" textLength="153.6152" x="109.8516" y="768.748">Place metal in correct bin</text><rect fill="#F1F1F1" height="33.9688" rx="12.5" ry="12.5" style="stroke:#181818;stroke-width:0.5;" width="147.3711" x="293.4668" y="747.6094"/><text fill="#000000" font-family="sans-serif" font-size="12" lengthAdjust="spacing" textLength="127.3711" x="303.4668" y="768.748">Place in unknown bin</text><polygon fill="#F1F1F1" points="276.9058,787.5781,288.9058,799.5781,276.9058,811.5781,264.9058,799.5781,276.9058,787.5781" style="stroke:#181818;stroke-width:0.5;"/><rect fill="#F1F1F1" height="33.9688" rx="12.5" ry="12.5" style="stroke:#181818;stroke-width:0.5;" width="220.2969" x="166.7573" y="843.5781"/><text fill="#000000" font-family="sans-serif" font-size="12" lengthAdjust="spacing" textLength="200.2969" x="176.7573" y="864.7168">Process completed for this object</text><ellipse cx="276.9058" cy="908.5469" fill="none" rx="11" ry="11" style="stroke:#222222;stroke-width:1.0;"/><ellipse cx="276.9058" cy="908.5469" fill="#222222" rx="6" ry="6" style="stroke:#222222;stroke-width:1.0;"/><line style="stroke:#181818;stroke-width:1.0;" x1="276.9058" x2="276.9058" y1="67.2969" y2="87.2969"/><polygon fill="#181818" points="272.9058,77.2969,276.9058,87.2969,280.9058,77.2969,276.9058,81.2969" style="stroke:#181818;stroke-width:1.0;"/><line style="stroke:#181818;stroke-width:1.0;" x1="276.9058" x2="276.9058" y1="121.2656" y2="141.2656"/><polygon fill="#181818" points="272.9058,131.2656,276.9058,141.2656,280.9058,131.2656,276.9058,135.2656" style="stroke:#181818;stroke-width:1.0;"/><line style="stroke:#181818;stroke-width:1.0;" x1="276.9058" x2="276.9058" y1="255.5" y2="275.5"/><polygon fill="#181818" points="272.9058,265.5,276.9058,275.5,280.9058,265.5,276.9058,269.5" style="stroke:#181818;stroke-width:1.0;"/><line style="stroke:#181818;stroke-width:1.0;" x1="276.9058" x2="276.9058" y1="309.4688" y2="329.4688"/><polygon fill="#181818" points="272.9058,319.4688,276.9058,329.4688,280.9058,319.4688,276.9058,323.4688" style="stroke:#181818;stroke-width:1.0;"/><line style="stroke:#181818;stroke-width:1.0;" x1="276.9058" x2="276.9058" y1="175.2344" y2="221.5313"/><polygon fill="#181818" points="272.9058,211.5313,276.9058,221.5313,280.9058,211.5313,276.9058,215.5313" style="stroke:#181818;stroke-width:1.0;"/><line style="stroke:#181818;stroke-width:1.0;" x1="405.4141" x2="405.4141" y1="463.4063" y2="483.4063"/><polygon fill="#181818" points="401.4141,473.4063,405.4141,483.4063,409.4141,473.4063,405.4141,477.4063" style="stroke:#181818;stroke-width:1.0;"/><line style="stroke:#181818;stroke-width:1.0;" x1="199.7007" x2="148.3975" y1="407.4375" y2="407.4375"/><line style="stroke:#181818;stroke-width:1.0;" x1="148.3975" x2="148.3975" y1="407.4375" y2="429.4375"/><polygon fill="#181818" points="144.3975,419.4375,148.3975,429.4375,152.3975,419.4375,148.3975,423.4375" style="stroke:#181818;stroke-width:1.0;"/><line style="stroke:#181818;stroke-width:1.0;" x1="354.1108" x2="405.4141" y1="407.4375" y2="407.4375"/><line style="stroke:#181818;stroke-width:1.0;" x1="405.4141" x2="405.4141" y1="407.4375" y2="429.4375"/><polygon fill="#181818" points="401.4141,419.4375,405.4141,429.4375,409.4141,419.4375,405.4141,423.4375" style="stroke:#181818;stroke-width:1.0;"/><line style="stroke:#181818;stroke-width:1.0;" x1="148.3975" x2="148.3975" y1="463.4063" y2="510.4063"/><line style="stroke:#181818;stroke-width:1.0;" x1="148.3975" x2="276.9058" y1="510.4063" y2="510.4063"/><line style="stroke:#181818;stroke-width:1.0;" x1="276.9058" x2="276.9058" y1="510.4063" y2="551.7031"/><polygon fill="#181818" points="272.9058,541.7031,276.9058,551.7031,280.9058,541.7031,276.9058,545.7031" style="stroke:#181818;stroke-width:1.0;"/><line style="stroke:#181818;stroke-width:1.0;" x1="276.9058" x2="276.9058" y1="363.4375" y2="395.4375"/><polygon fill="#181818" points="272.9058,385.4375,276.9058,395.4375,280.9058,385.4375,276.9058,389.4375" style="stroke:#181818;stroke-width:1.0;"/><line style="stroke:#181818;stroke-width:1.0;" x1="276.9058" x2="276.9058" y1="585.6719" y2="605.6719"/><polygon fill="#181818" points="272.9058,595.6719,276.9058,605.6719,280.9058,595.6719,276.9058,599.6719" style="stroke:#181818;stroke-width:1.0;"/><line style="stroke:#181818;stroke-width:1.0;" x1="276.9058" x2="276.9058" y1="639.6406" y2="659.6406"/><polygon fill="#181818" points="272.9058,649.6406,276.9058,659.6406,280.9058,649.6406,276.9058,653.6406" style="stroke:#181818;stroke-width:1.0;"/><line style="stroke:#181818;stroke-width:1.0;" x1="202.6763" x2="186.6592" y1="725.6094" y2="725.6094"/><line style="stroke:#181818;stroke-width:1.0;" x1="186.6592" x2="186.6592" y1="725.6094" y2="747.6094"/><polygon fill="#181818" points="182.6592,737.6094,186.6592,747.6094,190.6592,737.6094,186.6592,741.6094" style="stroke:#181818;stroke-width:1.0;"/><line style="stroke:#181818;stroke-width:1.0;" x1="351.1353" x2="367.1523" y1="725.6094" y2="725.6094"/><line style="stroke:#181818;stroke-width:1.0;" x1="367.1523" x2="367.1523" y1="725.6094" y2="747.6094"/><polygon fill="#181818" points="363.1523,737.6094,367.1523,747.6094,371.1523,737.6094,367.1523,741.6094" style="stroke:#181818;stroke-width:1.0;"/><line style="stroke:#181818;stroke-width:1.0;" x1="186.6592" x2="186.6592" y1="781.5781" y2="799.5781"/><line style="stroke:#181818;stroke-width:1.0;" x1="186.6592" x2="264.9058" y1="799.5781" y2="799.5781"/><polygon fill="#181818" points="254.9058,795.5781,264.9058,799.5781,254.9058,803.5781,258.9058,799.5781" style="stroke:#181818;stroke-width:1.0;"/><line style="stroke:#181818;stroke-width:1.0;" x1="367.1523" x2="367.1523" y1="781.5781" y2="799.5781"/><line style="stroke:#181818;stroke-width:1.0;" x1="367.1523" x2="288.9058" y1="799.5781" y2="799.5781"/><polygon fill="#181818" points="298.9058,795.5781,288.9058,799.5781,298.9058,803.5781,294.9058,799.5781" style="stroke:#181818;stroke-width:1.0;"/><line style="stroke:#181818;stroke-width:1.0;" x1="276.9058" x2="276.9058" y1="693.6094" y2="713.6094"/><polygon fill="#181818" points="272.9058,703.6094,276.9058,713.6094,280.9058,703.6094,276.9058,707.6094" style="stroke:#181818;stroke-width:1.0;"/><line style="stroke:#181818;stroke-width:1.0;" x1="276.9058" x2="276.9058" y1="811.5781" y2="843.5781"/><polygon fill="#181818" points="272.9058,833.5781,276.9058,843.5781,280.9058,833.5781,276.9058,837.5781" style="stroke:#181818;stroke-width:1.0;"/><line style="stroke:#181818;stroke-width:1.0;" x1="276.9058" x2="276.9058" y1="877.5469" y2="897.5469"/><polygon fill="#181818" points="272.9058,887.5469,276.9058,897.5469,280.9058,887.5469,276.9058,891.5469" style="stroke:#181818;stroke-width:1.0;"/><!--SRC=[PPB1JiCm38RlUGfh1xGTU87sWD0ceHq6qtRYcARkPaZZAWb34-BTSP8oEbPLgfJw__p_TY95Yx3rR304M94-UDt3FMmmQWihZ6WYiGFjMjYpZ-GEIeMeVLJLFdrWADfQLLaJGAeDknEUsKE3DjPA3L98cJDRwXwzXZjuNC_WIu4yLMa3VTBNvMZTeelKdSiXnFE0zL-nxyaXM3OwG-KjZRwLeWxcwp2HGPlfs3ui81xHmVmLmwAmzYYnBfYKCIiYmr8SOo3jOCSD2nfjG9W_ywXyQTwoPJvXIFKVxjtnf_WWLto6o8CIF7N_ubznBoFOeK4wuQsPCVL66gK-9TV08VF6dqzUDzFfZJCmx7qoAPwWasKatEqGCc5hjS4HJcwgBCJhz1E95Dz4Bwbb5zNllJBS3rRMq1OVHv9RaWTOgpId7m00]--></g></svg>