<svg xmlns="http://www.w3.org/2000/svg" xmlns:xlink="http://www.w3.org/1999/xlink" contentStyleType="text/css" height="256px" preserveAspectRatio="none" style="width:903px;height:256px;background:#FFFFFF;" version="1.1" viewBox="0 0 903 256" width="903px" zoomAndPan="magnify"><defs/><g><!--cluster Vision System--><g id="cluster_Vision System"><path d="M8.5,6 L121.042,6 A3.75,3.75 0 0 1 123.542,8.5 L130.542,28.2969 L187.5,28.2969 A2.5,2.5 0 0 1 190,30.7969 L190,247.09 A2.5,2.5 0 0 1 187.5,249.59 L8.5,249.59 A2.5,2.5 0 0 1 6,247.09 L6,8.5 A2.5,2.5 0 0 1 8.5,6 " fill="none" style="stroke:#000000;stroke-width:1.5;"/><line style="stroke:#000000;stroke-width:1.5;" x1="6" x2="130.542" y1="28.2969" y2="28.2969"/><text fill="#000000" font-family="sans-serif" font-size="14" font-weight="bold" lengthAdjust="spacing" textLength="111.542" x="10" y="20.9951">Vision System</text></g><!--cluster Conveyor Belt System--><g id="cluster_Conveyor Belt System"><path d="M232.5,6 L407.3516,6 A3.75,3.75 0 0 1 409.8516,8.5 L416.8516,28.2969 L572.5,28.2969 A2.5,2.5 0 0 1 575,30.7969 L575,100.79 A2.5,2.5 0 0 1 572.5,103.29 L232.5,103.29 A2.5,2.5 0 0 1 230,100.79 L230,8.5 A2.5,2.5 0 0 1 232.5,6 " fill="none" style="stroke:#000000;stroke-width:1.5;"/><line style="stroke:#000000;stroke-width:1.5;" x1="230" x2="416.8516" y1="28.2969" y2="28.2969"/><text fill="#000000" font-family="sans-serif" font-size="14" font-weight="bold" lengthAdjust="spacing" textLength="173.8516" x="234" y="20.9951">Conveyor Belt System</text></g><!--cluster Robotic Arm--><g id="cluster_Robotic Arm"><path d="M603.5,6 L701.5293,6 A3.75,3.75 0 0 1 704.0293,8.5 L711.0293,28.2969 L893.5,28.2969 A2.5,2.5 0 0 1 896,30.7969 L896,100.79 A2.5,2.5 0 0 1 893.5,103.29 L603.5,103.29 A2.5,2.5 0 0 1 601,100.79 L601,8.5 A2.5,2.5 0 0 1 603.5,6 " fill="none" style="stroke:#000000;stroke-width:1.5;"/><line style="stroke:#000000;stroke-width:1.5;" x1="601" x2="711.0293" y1="28.2969" y2="28.2969"/><text fill="#000000" font-family="sans-serif" font-size="14" font-weight="bold" lengthAdjust="spacing" textLength="97.0293" x="605" y="20.9951">Robotic Arm</text></g><!--cluster Control System--><g id="cluster_Control System"><path d="M373.5,152.29 L495.5645,152.29 A3.75,3.75 0 0 1 498.0645,154.79 L505.0645,174.5869 L505.5,174.5869 A2.5,2.5 0 0 1 508,177.0869 L508,247.09 A2.5,2.5 0 0 1 505.5,249.59 L373.5,249.59 A2.5,2.5 0 0 1 371,247.09 L371,154.79 A2.5,2.5 0 0 1 373.5,152.29 " fill="none" style="stroke:#000000;stroke-width:1.5;"/><line style="stroke:#000000;stroke-width:1.5;" x1="371" x2="505.0645" y1="174.5869" y2="174.5869"/><text fill="#000000" font-family="sans-serif" font-size="14" font-weight="bold" lengthAdjust="spacing" textLength="121.0645" x="375" y="167.2851">Control System</text></g><!--entity Camera--><g id="elem_Camera"><rect fill="#F1F1F1" height="46.2969" rx="2.5" ry="2.5" style="stroke:#181818;stroke-width:0.5;" width="94.9404" x="50.53" y="41"/><rect fill="#F1F1F1" height="10" style="stroke:#181818;stroke-width:0.5;" width="15" x="125.4704" y="46"/><rect fill="#F1F1F1" height="2" style="stroke:#181818;stroke-width:0.5;" width="4" x="123.4704" y="48"/><rect fill="#F1F1F1" height="2" style="stroke:#181818;stroke-width:0.5;" width="4" x="123.4704" y="52"/><text fill="#000000" font-family="sans-serif" font-size="14" lengthAdjust="spacing" textLength="54.9404" x="65.53" y="73.9951">Camera</text></g><!--entity Lighting Control--><g id="elem_Lighting Control"><rect fill="#F1F1F1" height="46.2969" rx="2.5" ry="2.5" style="stroke:#181818;stroke-width:0.5;" width="151.9521" x="22.02" y="187.29"/><rect fill="#F1F1F1" height="10" style="stroke:#181818;stroke-width:0.5;" width="15" x="153.9721" y="192.29"/><rect fill="#F1F1F1" height="2" style="stroke:#181818;stroke-width:0.5;" width="4" x="151.9721" y="194.29"/><rect fill="#F1F1F1" height="2" style="stroke:#181818;stroke-width:0.5;" width="4" x="151.9721" y="198.29"/><text fill="#000000" font-family="sans-serif" font-size="14" lengthAdjust="spacing" textLength="111.9521" x="37.02" y="220.2851">Lighting Control</text></g><!--entity Conveyor Belt--><g id="elem_Conveyor Belt"><rect fill="#F1F1F1" height="46.2969" rx="2.5" ry="2.5" style="stroke:#181818;stroke-width:0.5;" width="138.7656" x="245.62" y="41"/><rect fill="#F1F1F1" height="10" style="stroke:#181818;stroke-width:0.5;" width="15" x="364.3856" y="46"/><rect fill="#F1F1F1" height="2" style="stroke:#181818;stroke-width:0.5;" width="4" x="362.3856" y="48"/><rect fill="#F1F1F1" height="2" style="stroke:#181818;stroke-width:0.5;" width="4" x="362.3856" y="52"/><text fill="#000000" font-family="sans-serif" font-size="14" lengthAdjust="spacing" textLength="98.7656" x="260.62" y="73.9951">Conveyor Belt</text></g><!--entity Stepper Motor--><g id="elem_Stepper Motor"><rect fill="#F1F1F1" height="46.2969" rx="2.5" ry="2.5" style="stroke:#181818;stroke-width:0.5;" width="140.0371" x="418.98" y="41"/><rect fill="#F1F1F1" height="10" style="stroke:#181818;stroke-width:0.5;" width="15" x="539.0171" y="46"/><rect fill="#F1F1F1" height="2" style="stroke:#181818;stroke-width:0.5;" width="4" x="537.0171" y="48"/><rect fill="#F1F1F1" height="2" style="stroke:#181818;stroke-width:0.5;" width="4" x="537.0171" y="52"/><text fill="#000000" font-family="sans-serif" font-size="14" lengthAdjust="spacing" textLength="100.0371" x="433.98" y="73.9951">Stepper Motor</text></g><!--entity 6-Axis Robot--><g id="elem_6-Axis Robot"><rect fill="#F1F1F1" height="46.2969" rx="2.5" ry="2.5" style="stroke:#181818;stroke-width:0.5;" width="128.6895" x="616.66" y="41"/><rect fill="#F1F1F1" height="10" style="stroke:#181818;stroke-width:0.5;" width="15" x="725.3495" y="46"/><rect fill="#F1F1F1" height="2" style="stroke:#181818;stroke-width:0.5;" width="4" x="723.3495" y="48"/><rect fill="#F1F1F1" height="2" style="stroke:#181818;stroke-width:0.5;" width="4" x="723.3495" y="52"/><text fill="#000000" font-family="sans-serif" font-size="14" lengthAdjust="spacing" textLength="88.6895" x="631.66" y="73.9951">6-Axis Robot</text></g><!--entity Grippers--><g id="elem_Grippers"><rect fill="#F1F1F1" height="46.2969" rx="2.5" ry="2.5" style="stroke:#181818;stroke-width:0.5;" width="99.9307" x="780.03" y="41"/><rect fill="#F1F1F1" height="10" style="stroke:#181818;stroke-width:0.5;" width="15" x="859.9607" y="46"/><rect fill="#F1F1F1" height="2" style="stroke:#181818;stroke-width:0.5;" width="4" x="857.9607" y="48"/><rect fill="#F1F1F1" height="2" style="stroke:#181818;stroke-width:0.5;" width="4" x="857.9607" y="52"/><text fill="#000000" font-family="sans-serif" font-size="14" lengthAdjust="spacing" textLength="59.9307" x="795.03" y="73.9951">Grippers</text></g><!--entity PLC--><g id="elem_PLC"><rect fill="#F1F1F1" height="46.2969" rx="2.5" ry="2.5" style="stroke:#181818;stroke-width:0.5;" width="66.0176" x="405.99" y="187.29"/><rect fill="#F1F1F1" height="10" style="stroke:#181818;stroke-width:0.5;" width="15" x="452.0076" y="192.29"/><rect fill="#F1F1F1" height="2" style="stroke:#181818;stroke-width:0.5;" width="4" x="450.0076" y="194.29"/><rect fill="#F1F1F1" height="2" style="stroke:#181818;stroke-width:0.5;" width="4" x="450.0076" y="198.29"/><text fill="#000000" font-family="sans-serif" font-size="14" lengthAdjust="spacing" textLength="26.0176" x="420.99" y="220.2851">PLC</text></g><!--link Camera to Lighting Control--><g id="link_Camera_Lighting Control"><path d="M79.31,87.67 C72.81,96.89 66.33,108.02 63,119.29 C56.06,142.8 65.1124,163.8141 77.0124,181.8241 " fill="none" id="Camera-to-Lighting Control" style="stroke:#181818;stroke-width:1.0;"/><polygon fill="#181818" points="80.32,186.83,78.6958,177.116,77.5636,182.6584,72.0212,181.5262,80.32,186.83" style="stroke:#181818;stroke-width:1.0;"/><text fill="#000000" font-family="sans-serif" font-size="13" lengthAdjust="spacing" textLength="97.5444" x="64" y="132.3569">Adjust Lighting</text></g><!--link Camera to PLC--><g id="link_Camera_PLC"><path d="M135.27,87.71 C160.81,102.64 195.78,122.01 228,136.29 C289.14,163.4 357.9428,185.4667 400.0628,198.0967 " fill="none" id="Camera-to-PLC" style="stroke:#181818;stroke-width:1.0;"/><polygon fill="#181818" points="405.81,199.82,398.3381,193.4035,401.0207,198.3839,396.0403,201.0665,405.81,199.82" style="stroke:#181818;stroke-width:1.0;"/><text fill="#000000" font-family="sans-serif" font-size="13" lengthAdjust="spacing" textLength="124.8584" x="229" y="132.3569">Send Material Data</text></g><!--link Conveyor Belt to PLC--><g id="link_Conveyor Belt_PLC"><path d="M334.38,87.69 C357.67,114.8 392.6193,155.4696 415.8493,182.4996 " fill="none" id="Conveyor Belt-to-PLC" style="stroke:#181818;stroke-width:1.0;"/><polygon fill="#181818" points="419.76,187.05,416.9276,177.6172,416.5011,183.258,410.8603,182.8315,419.76,187.05" style="stroke:#181818;stroke-width:1.0;"/><text fill="#000000" font-family="sans-serif" font-size="13" lengthAdjust="spacing" textLength="75.9243" x="374.28" y="132.3569">Speed Data</text></g><!--link 6-Axis Robot to PLC--><g id="link_6-Axis Robot_PLC"><path d="M656.4,87.68 C639.38,102.59 615.78,121.96 593,136.29 C553.54,161.12 509.8959,180.8003 477.8759,194.0203 " fill="none" id="6-Axis Robot-to-PLC" style="stroke:#181818;stroke-width:1.0;"/><polygon fill="#181818" points="472.33,196.31,482.1754,196.5727,476.9516,194.4019,479.1224,189.1781,472.33,196.31" style="stroke:#181818;stroke-width:1.0;"/><text fill="#000000" font-family="sans-serif" font-size="13" lengthAdjust="spacing" textLength="146.377" x="616.98" y="132.3569">Pick-and-Place Actions</text></g><!--link PLC to Lighting Control--><g id="link_PLC_Lighting Control"><path d="M405.5,210.44 C352.15,210.44 252.53,210.44 180.1,210.44 " fill="none" id="PLC-to-Lighting Control" style="stroke:#181818;stroke-width:1.0;"/><polygon fill="#181818" points="174.1,210.44,183.1,214.44,179.1,210.44,183.1,206.44,174.1,210.44" style="stroke:#181818;stroke-width:1.0;"/><text fill="#000000" font-family="sans-serif" font-size="13" lengthAdjust="spacing" textLength="148.4399" x="215.98" y="203.5069">Real-time Adjustments</text></g><!--link PLC to Stepper Motor--><g id="link_PLC_Stepper Motor"><path d="M446.76,187.05 C456.13,160.02 469.8244,120.4689 479.2244,93.3589 " fill="none" id="PLC-to-Stepper Motor" style="stroke:#181818;stroke-width:1.0;"/><polygon fill="#181818" points="481.19,87.69,474.4623,94.8829,479.552,92.4141,482.0209,97.5037,481.19,87.69" style="stroke:#181818;stroke-width:1.0;"/><text fill="#000000" font-family="sans-serif" font-size="13" lengthAdjust="spacing" textLength="113.3628" x="470.95" y="132.3569">Conveyor Control</text></g><!--link PLC to Grippers--><g id="link_PLC_Grippers"><path d="M472.39,209.19 C535.57,207.27 674.95,196 772,136.29 C791.41,124.35 804.0126,108.6144 814.2026,92.5744 " fill="none" id="PLC-to-Grippers" style="stroke:#181818;stroke-width:1.0;"/><polygon fill="#181818" points="817.42,87.51,809.2177,92.9617,814.7389,91.7304,815.9702,97.2516,817.42,87.51" style="stroke:#181818;stroke-width:1.0;"/><text fill="#000000" font-family="sans-serif" font-size="13" lengthAdjust="spacing" textLength="97.0747" x="792.38" y="132.3569">Pick Command</text></g><!--SRC=[TP4zQyCm48Pt_Of3kzOE7Wgk2rqIC35qlyg7gyRwGBgKXjB_NiLnKYkfrxj7Byzx2gZtE138LvECTz0T4vELy2q0jBV1Et8C3LgAM8panWplRDm0ZNSS_IZ5Zn3X4fU7dtJq4Pvev9NK4fBbhcCAWI9iFVjOPk_ycsUZeOxtaG-g_Z899kGcyIMQKsAw4ptPhocscsRYpnS0fHx_QLv1tNyS4iDbiyHpGWKTkHwso1GDZl2CZEAc_O8DHFtC57N-aDRelKBNgtP4JL1hpd-Nn6IxwhWZ71KRIxEjpGMBD-N9AxWApXbBzdhCiqn6hCr2lm00]--></g></svg>